<svg xmlns="http://www.w3.org/2000/svg" xmlns:xlink="http://www.w3.org/1999/xlink" width="1920" zoomAndPan="magnify" viewBox="0 0 1440 809.999993" height="1080" preserveAspectRatio="xMidYMid meet" version="1.0"><defs><filter x="0%" y="0%" width="100%" height="100%" id="0cbc533a11"><feColorMatrix values="0 0 0 0 1 0 0 0 0 1 0 0 0 0 1 0 0 0 1 0" color-interpolation-filters="sRGB"/></filter><mask id="eb7d70825a"><g filter="url(#0cbc533a11)"><rect x="-144" width="1728" fill="#000000" y="-80.999999" height="971.999992" fill-opacity="0.31"/></g></mask><clipPath id="d08a82b061"><path d="M 0.199219 0 L 759.558594 0 L 759.558594 810 L 0.199219 810 Z M 0.199219 0 " clip-rule="nonzero"/></clipPath><clipPath id="40939f42d4"><rect x="0" width="760" y="0" height="810"/></clipPath><mask id="5dda5bb984"><g filter="url(#0cbc533a11)"><rect x="-144" width="1728" fill="#000000" y="-80.999999" height="971.999992" fill-opacity="0.3"/></g></mask><clipPath id="e28fbdcc69"><path d="M 0.359375 0 L 886.921875 0 L 886.921875 810 L 0.359375 810 Z M 0.359375 0 " clip-rule="nonzero"/></clipPath><clipPath id="91c24ddc0e"><rect x="0" width="887" y="0" height="810"/></clipPath><mask id="b87bed30bf"><g filter="url(#0cbc533a11)"><rect x="-144" width="1728" fill="#000000" y="-80.999999" height="971.999992" fill-opacity="0.3"/></g></mask><clipPath id="059ec602e4"><path d="M 0 0 L 306.238281 0 L 306.238281 810 L 0 810 Z M 0 0 " clip-rule="nonzero"/></clipPath><clipPath id="c84e4957be"><rect x="0" width="307" y="0" height="810"/></clipPath></defs><g mask="url(#eb7d70825a)"><g transform="matrix(1, 0, 0, 1, 679, 0.000000000000039746)"><g clip-path="url(#40939f42d4)"><g clip-path="url(#d08a82b061)"><path fill="#a6a6a6" d="M 116.113281 809.984375 C 81.136719 793.121094 53.457031 772.21875 33.859375 747.863281 C 10.742188 719.160156 -1.425781 684.101562 0.480469 651.683594 C 2.597656 615.402344 23.027344 581.957031 52.511719 566.460938 C 81.820312 551.066406 116.375 553.25 146.316406 557.4375 C 166.863281 560.304688 187.257812 561.722656 207.328125 561.722656 C 289.8125 561.722656 367.210938 537.855469 429.933594 492.335938 C 510.542969 433.835938 562.101562 339.035156 564.496094 244.921875 C 567.023438 145.855469 513.425781 48.011719 431.105469 1.433594 L 431.902344 0.015625 C 473.234375 23.394531 507.804688 59.316406 531.882812 103.90625 C 555.519531 147.679688 567.363281 196.457031 566.125 244.972656 C 564.921875 292.296875 551.464844 340.535156 527.222656 384.441406 C 503.550781 427.320312 470.238281 465.082031 430.878906 493.65625 C 352.546875 550.511719 251.414062 573.746094 146.074219 559.066406 C 116.390625 554.929688 82.148438 552.746094 53.246094 567.929688 C 24.246094 583.160156 4.175781 616.085938 2.074219 651.8125 C 0.203125 683.824219 12.242188 718.476562 35.113281 746.886719 C 54.566406 771.046875 82.050781 791.800781 116.796875 808.566406 L 116.097656 810.03125 Z M 144.414062 808.515625 C 109.664062 791.753906 82.179688 771 62.726562 746.839844 C 39.855469 718.425781 27.816406 683.777344 29.6875 651.761719 C 31.773438 616.035156 51.863281 583.113281 80.859375 567.878906 C 109.761719 552.695312 144.003906 554.878906 173.6875 559.015625 C 279.011719 573.695312 380.164062 550.464844 458.492188 493.609375 C 497.851562 465.03125 531.164062 427.269531 554.835938 384.390625 C 579.078125 340.488281 592.519531 292.25 593.742188 244.921875 C 594.980469 196.40625 583.136719 147.632812 559.496094 103.855469 C 535.417969 59.285156 500.847656 23.363281 459.515625 -0.03125 L 458.71875 1.386719 C 541.039062 47.960938 594.636719 145.804688 592.113281 244.875 C 589.699219 338.988281 538.136719 433.785156 457.546875 492.289062 C 394.824219 537.804688 317.425781 561.671875 234.941406 561.671875 C 214.855469 561.671875 194.476562 560.253906 173.933594 557.386719 C 143.988281 553.21875 109.417969 551.019531 80.128906 566.414062 C 50.640625 581.90625 30.210938 615.351562 28.09375 651.632812 C 26.203125 684.050781 38.371094 719.109375 61.488281 747.816406 C 81.089844 772.171875 108.765625 793.058594 143.746094 809.933594 L 144.445312 808.46875 Z M 172.007812 808.515625 C 137.261719 791.753906 109.777344 771 90.324219 746.839844 C 67.453125 718.425781 55.414062 683.777344 57.285156 651.761719 C 59.371094 616.035156 79.460938 583.113281 108.457031 567.878906 C 137.359375 552.695312 171.601562 554.878906 201.285156 559.015625 C 306.609375 573.695312 407.761719 550.464844 486.089844 493.609375 C 525.449219 465.03125 558.761719 427.269531 582.433594 384.390625 C 606.675781 340.488281 620.117188 292.25 621.339844 244.921875 C 622.574219 196.40625 610.730469 147.632812 587.09375 103.855469 C 563.015625 59.285156 528.445312 23.363281 487.113281 -0.03125 L 486.316406 1.386719 C 568.636719 47.960938 622.234375 145.804688 619.707031 244.875 C 617.296875 338.988281 565.734375 433.785156 485.144531 492.289062 C 422.421875 537.804688 345.023438 561.671875 262.539062 561.671875 C 242.453125 561.671875 222.074219 560.253906 201.527344 557.386719 C 171.585938 553.21875 137.015625 551.019531 107.722656 566.414062 C 78.238281 581.90625 57.808594 615.351562 55.691406 651.632812 C 53.800781 684.050781 65.96875 719.109375 89.085938 747.816406 C 108.6875 772.171875 136.363281 793.074219 171.339844 809.933594 L 172.042969 808.46875 Z M 199.605469 808.515625 C 164.859375 791.753906 137.375 771 117.921875 746.839844 C 95.050781 718.425781 83.011719 683.777344 84.882812 651.761719 C 86.96875 616.035156 107.054688 583.113281 136.054688 567.878906 C 164.957031 552.695312 199.199219 554.878906 228.882812 559.015625 C 334.203125 573.695312 435.355469 550.464844 513.683594 493.609375 C 553.046875 465.03125 586.359375 427.269531 610.03125 384.390625 C 634.273438 340.488281 647.714844 292.25 648.933594 244.921875 C 650.171875 196.40625 638.328125 147.632812 614.691406 103.855469 C 590.613281 59.285156 556.042969 23.363281 514.710938 -0.03125 L 513.914062 1.386719 C 596.234375 47.960938 649.832031 145.804688 647.304688 244.875 C 644.894531 338.988281 593.332031 433.785156 512.742188 492.289062 C 450.019531 537.804688 372.621094 561.671875 290.136719 561.671875 C 270.050781 561.671875 249.667969 560.253906 229.125 557.386719 C 199.183594 553.21875 164.613281 551.019531 135.320312 566.414062 C 105.835938 581.90625 85.40625 615.351562 83.289062 651.632812 C 81.398438 684.050781 93.566406 719.109375 116.683594 747.816406 C 136.28125 772.171875 163.960938 793.058594 198.9375 809.933594 L 199.640625 808.46875 Z M 227.203125 808.515625 C 192.453125 791.753906 164.972656 771 145.519531 746.839844 C 122.648438 718.425781 110.609375 683.777344 112.480469 651.761719 C 114.566406 616.035156 134.652344 583.113281 163.652344 567.878906 C 192.554688 552.695312 226.796875 554.878906 256.480469 559.015625 C 361.800781 573.695312 462.953125 550.464844 541.28125 493.609375 C 580.640625 465.03125 613.957031 427.269531 637.628906 384.390625 C 661.871094 340.488281 675.3125 292.25 676.53125 244.921875 C 677.769531 196.40625 665.925781 147.632812 642.289062 103.855469 C 618.210938 59.285156 583.640625 23.363281 542.308594 -0.03125 L 541.511719 1.386719 C 623.832031 47.960938 677.429688 145.804688 674.902344 244.875 C 672.492188 338.988281 620.929688 433.785156 540.339844 492.289062 C 477.617188 537.804688 400.21875 561.671875 317.734375 561.671875 C 297.648438 561.671875 277.265625 560.253906 256.722656 557.386719 C 226.78125 553.21875 192.210938 551.019531 162.917969 566.414062 C 133.433594 581.90625 113.003906 615.351562 110.886719 651.632812 C 108.996094 684.050781 121.164062 719.109375 144.28125 747.816406 C 163.878906 772.171875 191.558594 793.074219 226.535156 809.933594 L 227.238281 808.46875 Z M 254.800781 808.515625 C 220.050781 791.753906 192.570312 771 173.117188 746.839844 C 150.246094 718.425781 138.207031 683.777344 140.078125 651.761719 C 142.164062 616.035156 162.25 583.113281 191.25 567.878906 C 220.148438 552.695312 254.394531 554.878906 284.078125 559.015625 C 389.414062 573.695312 490.550781 550.464844 568.878906 493.609375 C 608.238281 465.03125 641.554688 427.269531 665.226562 384.390625 C 689.46875 340.488281 702.90625 292.25 704.128906 244.921875 C 705.367188 196.40625 693.523438 147.632812 669.886719 103.855469 C 645.808594 59.285156 611.238281 23.363281 569.90625 -0.03125 L 569.109375 1.386719 C 651.429688 47.960938 705.027344 145.804688 702.5 244.875 C 700.089844 338.988281 648.527344 433.785156 567.933594 492.289062 C 505.214844 537.804688 427.8125 561.671875 345.332031 561.671875 C 325.246094 561.671875 304.863281 560.253906 284.320312 557.386719 C 254.378906 553.21875 219.808594 551.019531 190.515625 566.414062 C 161.03125 581.90625 140.601562 615.351562 138.480469 651.632812 C 136.59375 684.050781 148.761719 719.109375 171.878906 747.816406 C 191.476562 772.171875 219.15625 793.074219 254.132812 809.933594 L 254.835938 808.46875 Z M 282.398438 808.515625 C 247.648438 791.753906 220.167969 771 200.714844 746.839844 C 177.839844 718.425781 165.800781 683.777344 167.675781 651.761719 C 169.761719 616.035156 189.847656 583.113281 218.847656 567.878906 C 247.746094 552.695312 281.992188 554.878906 311.675781 559.015625 C 416.996094 573.695312 518.148438 550.464844 596.476562 493.609375 C 635.835938 465.03125 669.152344 427.269531 692.824219 384.390625 C 717.066406 340.488281 730.503906 292.25 731.726562 244.921875 C 732.964844 196.40625 721.121094 147.632812 697.484375 103.855469 C 673.40625 59.285156 638.835938 23.363281 597.503906 -0.03125 L 596.707031 1.386719 C 679.023438 47.960938 732.625 145.804688 730.097656 244.875 C 727.6875 338.988281 676.125 433.785156 595.53125 492.289062 C 532.8125 537.804688 455.410156 561.671875 372.929688 561.671875 C 352.84375 561.671875 332.460938 560.253906 311.917969 557.386719 C 281.976562 553.21875 247.40625 551.019531 218.113281 566.414062 C 188.625 581.90625 168.199219 615.351562 166.078125 651.632812 C 164.191406 684.050781 176.359375 719.109375 199.476562 747.816406 C 219.074219 772.171875 246.753906 793.058594 281.730469 809.933594 L 282.429688 808.46875 Z M 309.996094 808.515625 C 275.246094 791.753906 247.765625 771 228.3125 746.839844 C 205.4375 718.425781 193.398438 683.777344 195.273438 651.761719 C 197.359375 616.035156 217.445312 583.113281 246.445312 567.878906 C 275.34375 552.695312 309.589844 554.878906 339.273438 559.015625 C 444.59375 573.695312 545.746094 550.464844 624.074219 493.609375 C 663.433594 465.03125 696.75 427.269531 720.421875 384.390625 C 744.664062 340.488281 758.101562 292.25 759.324219 244.921875 C 760.5625 196.40625 748.71875 147.632812 725.082031 103.855469 C 701.003906 59.285156 666.433594 23.363281 625.101562 -0.03125 L 624.304688 1.386719 C 706.621094 47.960938 760.222656 145.804688 757.695312 244.875 C 755.285156 338.988281 703.722656 433.785156 623.128906 492.289062 C 560.410156 537.804688 483.007812 561.671875 400.527344 561.671875 C 380.441406 561.671875 360.058594 560.253906 339.515625 557.386719 C 309.574219 553.21875 275.003906 551.019531 245.710938 566.414062 C 216.222656 581.90625 195.792969 615.351562 193.675781 651.632812 C 191.789062 684.050781 203.957031 719.109375 227.074219 747.816406 C 246.671875 772.171875 274.351562 793.074219 309.328125 809.933594 L 310.027344 808.46875 Z M 309.996094 808.515625 " fill-opacity="1" fill-rule="nonzero"/></g></g></g></g><g mask="url(#5dda5bb984)"><g transform="matrix(1, 0, 0, 1, 309, 0.000000000000039746)"><g clip-path="url(#91c24ddc0e)"><g clip-path="url(#e28fbdcc69)"><path fill="#a6a6a6" d="M 751.570312 0.0195312 C 792.40625 19.707031 824.722656 44.109375 847.605469 72.542969 C 874.59375 106.058594 888.800781 146.988281 886.578125 184.839844 C 884.105469 227.199219 860.253906 266.246094 825.824219 284.335938 C 791.609375 302.308594 751.265625 299.761719 716.308594 294.871094 C 692.320312 291.523438 668.507812 289.871094 645.074219 289.871094 C 548.777344 289.871094 458.410156 317.734375 385.183594 370.878906 C 291.070312 439.179688 230.871094 549.859375 228.074219 659.738281 C 225.125 775.402344 287.703125 889.636719 383.8125 944.019531 L 382.878906 945.671875 C 334.625 918.378906 294.265625 876.4375 266.152344 824.378906 C 238.554688 773.273438 224.726562 716.324219 226.171875 659.683594 C 227.578125 604.429688 243.289062 548.109375 271.59375 496.847656 C 299.230469 446.789062 338.125 402.699219 384.078125 369.335938 C 475.527344 302.957031 593.605469 275.832031 716.59375 292.96875 C 751.246094 297.800781 791.226562 300.351562 824.96875 282.625 C 858.828125 264.839844 882.257812 226.398438 884.714844 184.6875 C 886.902344 147.3125 872.84375 106.855469 846.140625 73.683594 C 823.429688 45.476562 791.34375 21.246094 750.773438 1.675781 L 751.589844 -0.0390625 Z M 718.53125 1.730469 C 759.101562 21.304688 791.191406 45.535156 813.898438 73.742188 C 840.605469 106.914062 854.660156 147.371094 852.472656 184.746094 C 850.039062 226.457031 826.585938 264.894531 792.730469 282.679688 C 758.988281 300.40625 719.007812 297.859375 684.351562 293.027344 C 561.386719 275.890625 443.289062 303.011719 351.839844 369.394531 C 305.886719 402.753906 266.988281 446.84375 239.351562 496.90625 C 211.050781 548.167969 195.359375 604.484375 193.933594 659.738281 C 192.488281 716.382812 206.316406 773.328125 233.914062 824.4375 C 262.023438 876.476562 302.386719 918.417969 350.640625 945.730469 L 351.574219 944.074219 C 255.464844 889.695312 192.886719 775.460938 195.835938 659.796875 C 198.648438 549.917969 258.847656 439.238281 352.941406 370.933594 C 426.171875 317.792969 516.535156 289.925781 612.835938 289.925781 C 636.289062 289.925781 660.082031 291.582031 684.066406 294.929688 C 719.027344 299.796875 759.386719 302.367188 793.585938 284.390625 C 828.011719 266.304688 851.863281 227.253906 854.335938 184.898438 C 856.542969 147.046875 842.335938 106.113281 815.347656 72.601562 C 792.464844 44.164062 760.148438 19.78125 719.3125 0.0742188 L 718.492188 1.789062 Z M 686.3125 1.730469 C 726.882812 21.304688 758.96875 45.535156 781.679688 73.742188 C 808.382812 106.914062 822.441406 147.371094 820.253906 184.746094 C 817.820312 226.457031 794.367188 264.894531 760.511719 282.679688 C 726.769531 300.40625 686.789062 297.859375 652.132812 293.027344 C 529.164062 275.890625 411.070312 303.011719 319.617188 369.394531 C 273.664062 402.753906 234.769531 446.84375 207.132812 496.90625 C 178.828125 548.167969 163.136719 604.484375 161.710938 659.738281 C 160.265625 716.382812 174.09375 773.328125 201.691406 824.4375 C 229.804688 876.476562 270.164062 918.417969 318.421875 945.730469 L 319.351562 944.074219 C 223.242188 889.695312 160.664062 775.460938 163.613281 659.796875 C 166.429688 549.917969 226.628906 439.238281 320.722656 370.933594 C 393.949219 317.792969 484.316406 289.925781 580.617188 289.925781 C 604.066406 289.925781 627.863281 291.582031 651.847656 294.929688 C 686.804688 299.796875 727.167969 302.367188 761.367188 284.390625 C 795.792969 266.304688 819.644531 227.253906 822.117188 184.898438 C 824.324219 147.046875 810.113281 106.113281 783.125 72.601562 C 760.242188 44.164062 727.929688 19.761719 687.089844 0.0742188 L 686.273438 1.789062 Z M 654.089844 1.730469 C 694.660156 21.304688 726.75 45.535156 749.460938 73.742188 C 776.164062 106.914062 790.21875 147.371094 788.03125 184.746094 C 785.597656 226.457031 762.144531 264.894531 728.289062 282.679688 C 694.546875 300.40625 654.566406 297.859375 619.910156 293.027344 C 496.945312 275.890625 378.847656 303.011719 287.398438 369.394531 C 241.445312 402.753906 202.546875 446.84375 174.910156 496.90625 C 146.609375 548.167969 130.917969 604.484375 129.492188 659.738281 C 128.046875 716.382812 141.875 773.328125 169.472656 824.4375 C 197.585938 876.476562 237.945312 918.417969 286.199219 945.730469 L 287.132812 944.074219 C 191.023438 889.695312 128.445312 775.460938 131.394531 659.796875 C 134.207031 549.917969 194.40625 439.238281 288.5 370.933594 C 361.730469 317.792969 452.09375 289.925781 548.394531 289.925781 C 571.847656 289.925781 595.640625 291.582031 619.625 294.929688 C 654.585938 299.796875 694.945312 302.367188 729.144531 284.390625 C 763.574219 266.304688 787.425781 227.253906 789.894531 184.898438 C 792.101562 147.046875 777.894531 106.113281 750.90625 72.601562 C 728.023438 44.164062 695.707031 19.78125 654.871094 0.0742188 L 654.054688 1.789062 Z M 621.871094 1.730469 C 662.441406 21.304688 694.527344 45.535156 717.238281 73.742188 C 743.945312 106.914062 758 147.371094 755.8125 184.746094 C 753.378906 226.457031 729.925781 264.894531 696.070312 282.679688 C 662.328125 300.40625 622.347656 297.859375 587.691406 293.027344 C 464.726562 275.890625 346.628906 303.011719 255.175781 369.394531 C 209.222656 402.753906 170.328125 446.84375 142.691406 496.90625 C 114.390625 548.167969 98.699219 604.484375 97.269531 659.738281 C 95.824219 716.382812 109.652344 773.328125 137.25 824.4375 C 165.363281 876.476562 205.726562 918.417969 253.980469 945.730469 L 254.910156 944.074219 C 158.800781 889.695312 96.226562 775.460938 99.171875 659.796875 C 101.988281 549.917969 162.1875 439.238281 256.28125 370.933594 C 329.507812 317.792969 419.875 289.925781 516.175781 289.925781 C 539.625 289.925781 563.421875 291.582031 587.40625 294.929688 C 622.367188 299.796875 662.726562 302.367188 696.925781 284.390625 C 731.351562 266.304688 755.203125 227.253906 757.675781 184.898438 C 759.882812 147.046875 745.675781 106.113281 718.683594 72.601562 C 695.804688 44.164062 663.488281 19.761719 622.652344 0.0742188 L 621.832031 1.789062 Z M 589.652344 1.730469 C 630.222656 21.304688 662.308594 45.535156 685.019531 73.742188 C 711.722656 106.914062 725.777344 147.371094 723.589844 184.746094 C 721.15625 226.457031 697.703125 264.894531 663.847656 282.679688 C 630.105469 300.40625 590.125 297.859375 555.472656 293.027344 C 432.484375 275.890625 314.40625 303.011719 222.957031 369.394531 C 177.003906 402.753906 138.109375 446.84375 110.472656 496.90625 C 82.167969 548.167969 66.476562 604.484375 65.050781 659.738281 C 63.605469 716.382812 77.433594 773.328125 105.03125 824.4375 C 133.144531 876.476562 173.503906 918.417969 221.757812 945.730469 L 222.691406 944.074219 C 126.582031 889.695312 64.003906 775.460938 66.953125 659.796875 C 69.765625 549.917969 129.964844 439.238281 224.058594 370.933594 C 297.289062 317.792969 387.65625 289.925781 483.953125 289.925781 C 507.40625 289.925781 531.199219 291.582031 555.183594 294.929688 C 590.144531 299.796875 630.507812 302.367188 664.703125 284.390625 C 699.132812 266.304688 722.984375 227.253906 725.457031 184.898438 C 727.660156 147.046875 713.453125 106.113281 686.464844 72.601562 C 663.582031 44.164062 631.265625 19.761719 590.429688 0.0742188 L 589.613281 1.789062 Z M 557.429688 1.730469 C 598 21.304688 630.085938 45.535156 652.796875 73.742188 C 679.503906 106.914062 693.558594 147.371094 691.371094 184.746094 C 688.9375 226.457031 665.484375 264.894531 631.628906 282.679688 C 597.886719 300.40625 557.90625 297.859375 523.25 293.027344 C 400.285156 275.890625 282.1875 303.011719 190.738281 369.394531 C 144.785156 402.753906 105.886719 446.84375 78.25 496.90625 C 49.949219 548.167969 34.257812 604.484375 32.828125 659.738281 C 31.382812 716.382812 45.210938 773.328125 72.8125 824.4375 C 100.921875 876.476562 141.285156 918.417969 189.539062 945.730469 L 190.46875 944.074219 C 94.359375 889.695312 31.785156 775.460938 34.730469 659.796875 C 37.546875 549.917969 97.746094 439.238281 191.839844 370.933594 C 265.066406 317.792969 355.433594 289.925781 451.734375 289.925781 C 475.1875 289.925781 498.980469 291.582031 522.964844 294.929688 C 557.925781 299.796875 598.285156 302.367188 632.484375 284.390625 C 666.910156 266.304688 690.761719 227.253906 693.234375 184.898438 C 695.441406 147.046875 681.234375 106.113281 654.242188 72.601562 C 631.363281 44.164062 599.046875 19.78125 558.210938 0.0742188 L 557.390625 1.789062 Z M 525.210938 1.730469 C 565.78125 21.304688 597.867188 45.535156 620.578125 73.742188 C 647.28125 106.914062 661.339844 147.371094 659.152344 184.746094 C 656.714844 226.457031 633.265625 264.894531 599.40625 282.679688 C 565.664062 300.40625 525.683594 297.859375 491.03125 293.027344 C 368.0625 275.890625 249.964844 303.011719 158.515625 369.394531 C 112.5625 402.753906 73.667969 446.84375 46.03125 496.90625 C 17.726562 548.167969 2.035156 604.484375 0.609375 659.738281 C -0.835938 716.382812 12.992188 773.328125 40.589844 824.4375 C 68.703125 876.476562 109.0625 918.417969 157.316406 945.730469 L 158.25 944.074219 C 62.140625 889.695312 -0.4375 775.460938 2.511719 659.796875 C 5.328125 549.917969 65.527344 439.238281 159.621094 370.933594 C 232.847656 317.792969 323.214844 289.925781 419.511719 289.925781 C 442.964844 289.925781 466.761719 291.582031 490.746094 294.929688 C 525.703125 299.796875 566.066406 302.367188 600.261719 284.390625 C 634.691406 266.304688 658.542969 227.253906 661.015625 184.898438 C 663.222656 147.046875 649.011719 106.113281 622.023438 72.601562 C 599.140625 44.164062 566.824219 19.761719 525.988281 0.0742188 L 525.171875 1.789062 Z M 525.210938 1.730469 " fill-opacity="1" fill-rule="nonzero"/></g></g></g></g><g mask="url(#b87bed30bf)"><g transform="matrix(1, 0, 0, 1, 0, 0.000000000000039746)"><g clip-path="url(#c84e4957be)"><g clip-path="url(#059ec602e4)"><path fill="#a6a6a6" d="M -337.230469 809.984375 C -372.207031 793.121094 -399.886719 772.21875 -419.484375 747.863281 C -442.601562 719.160156 -454.769531 684.101562 -452.863281 651.683594 C -450.746094 615.402344 -430.316406 581.957031 -400.828125 566.460938 C -371.523438 551.066406 -336.96875 553.25 -307.023438 557.4375 C -286.480469 560.304688 -266.085938 561.722656 -246.015625 561.722656 C -163.53125 561.722656 -86.132812 537.855469 -23.410156 492.335938 C 57.199219 433.835938 108.757812 339.035156 111.15625 244.921875 C 113.679688 145.855469 60.082031 48.011719 -22.238281 1.433594 L -21.441406 0.015625 C 19.890625 23.394531 54.460938 59.316406 78.539062 103.90625 C 102.179688 147.679688 114.023438 196.457031 112.785156 244.972656 C 111.578125 292.296875 98.121094 340.535156 73.878906 384.441406 C 50.207031 427.320312 16.894531 465.082031 -22.464844 493.65625 C -100.792969 550.511719 -201.929688 573.746094 -307.269531 559.066406 C -336.953125 554.929688 -371.195312 552.746094 -400.097656 567.929688 C -429.09375 583.160156 -449.167969 616.085938 -451.269531 651.8125 C -453.140625 683.824219 -441.101562 718.476562 -418.230469 746.886719 C -398.777344 771.046875 -371.292969 791.800781 -336.542969 808.566406 L -337.246094 810.03125 Z M -308.929688 808.515625 C -343.679688 791.753906 -371.164062 771 -390.617188 746.839844 C -413.488281 718.425781 -425.527344 683.777344 -423.652344 651.761719 C -421.570312 616.035156 -401.480469 583.113281 -372.484375 567.878906 C -343.582031 552.695312 -309.339844 554.878906 -279.65625 559.015625 C -174.332031 573.695312 -73.179688 550.464844 5.148438 493.609375 C 44.507812 465.03125 77.824219 427.269531 101.492188 384.390625 C 125.734375 340.488281 139.175781 292.25 140.398438 244.921875 C 141.636719 196.40625 129.792969 147.632812 106.152344 103.855469 C 82.074219 59.285156 47.503906 23.363281 6.175781 -0.03125 L 5.375 1.386719 C 87.695312 47.960938 141.292969 145.804688 138.769531 244.875 C 136.355469 338.988281 84.796875 433.785156 4.203125 492.289062 C -58.519531 537.804688 -135.917969 561.671875 -218.402344 561.671875 C -238.488281 561.671875 -258.867188 560.253906 -279.410156 557.386719 C -309.355469 553.21875 -343.925781 551.019531 -373.214844 566.414062 C -402.703125 581.90625 -423.132812 615.351562 -425.25 651.632812 C -427.140625 684.050781 -414.96875 719.109375 -391.851562 747.816406 C -372.253906 772.171875 -344.578125 793.058594 -309.597656 809.933594 L -308.898438 808.46875 Z M -281.332031 808.515625 C -316.082031 791.753906 -343.566406 771 -363.019531 746.839844 C -385.890625 718.425781 -397.929688 683.777344 -396.054688 651.761719 C -393.972656 616.035156 -373.882812 583.113281 -344.886719 567.878906 C -315.984375 552.695312 -281.742188 554.878906 -252.058594 559.015625 C -146.734375 573.695312 -45.582031 550.464844 32.746094 493.609375 C 72.105469 465.03125 105.421875 427.269531 129.089844 384.390625 C 153.332031 340.488281 166.773438 292.25 167.996094 244.921875 C 169.234375 196.40625 157.390625 147.632812 133.75 103.855469 C 109.671875 59.285156 75.101562 23.363281 33.769531 -0.03125 L 32.972656 1.386719 C 115.292969 47.960938 168.890625 145.804688 166.367188 244.875 C 163.953125 338.988281 112.394531 433.785156 31.800781 492.289062 C -30.921875 537.804688 -108.320312 561.671875 -190.804688 561.671875 C -210.890625 561.671875 -231.269531 560.253906 -251.8125 557.386719 C -281.757812 553.21875 -316.328125 551.019531 -345.617188 566.414062 C -375.105469 581.90625 -395.535156 615.351562 -397.652344 651.632812 C -399.542969 684.050781 -387.375 719.109375 -364.257812 747.816406 C -344.65625 772.171875 -316.980469 793.074219 -282 809.933594 L -281.300781 808.46875 Z M -253.738281 808.515625 C -288.484375 791.753906 -315.96875 771 -335.421875 746.839844 C -358.292969 718.425781 -370.332031 683.777344 -368.460938 651.761719 C -366.375 616.035156 -346.285156 583.113281 -317.289062 567.878906 C -288.386719 552.695312 -254.144531 554.878906 -224.460938 559.015625 C -119.136719 573.695312 -17.984375 550.464844 60.34375 493.609375 C 99.703125 465.03125 133.015625 427.269531 156.6875 384.390625 C 180.929688 340.488281 194.371094 292.25 195.59375 244.921875 C 196.832031 196.40625 184.988281 147.632812 161.347656 103.855469 C 137.269531 59.285156 102.699219 23.363281 61.367188 -0.03125 L 60.570312 1.386719 C 142.890625 47.960938 196.488281 145.804688 193.964844 244.875 C 191.550781 338.988281 139.988281 433.785156 59.398438 492.289062 C -3.324219 537.804688 -80.722656 561.671875 -163.207031 561.671875 C -183.292969 561.671875 -203.671875 560.253906 -224.214844 557.386719 C -254.160156 553.21875 -288.730469 551.019531 -318.023438 566.414062 C -347.507812 581.90625 -367.9375 615.351562 -370.054688 651.632812 C -371.945312 684.050781 -359.777344 719.109375 -336.660156 747.816406 C -317.058594 772.171875 -289.382812 793.058594 -254.402344 809.933594 L -253.703125 808.46875 Z M -226.140625 808.515625 C -260.886719 791.753906 -288.371094 771 -307.824219 746.839844 C -330.695312 718.425781 -342.734375 683.777344 -340.863281 651.761719 C -338.777344 616.035156 -318.691406 583.113281 -289.691406 567.878906 C -260.789062 552.695312 -226.546875 554.878906 -196.863281 559.015625 C -91.539062 573.695312 9.609375 550.464844 87.941406 493.609375 C 127.300781 465.03125 160.613281 427.269531 184.285156 384.390625 C 208.527344 340.488281 221.96875 292.25 223.1875 244.921875 C 224.425781 196.40625 212.582031 147.632812 188.945312 103.855469 C 164.867188 59.285156 130.296875 23.363281 88.964844 -0.03125 L 88.167969 1.386719 C 170.488281 47.960938 224.085938 145.804688 221.558594 244.875 C 219.148438 338.988281 167.585938 433.785156 86.996094 492.289062 C 24.273438 537.804688 -53.125 561.671875 -135.609375 561.671875 C -155.695312 561.671875 -176.074219 560.253906 -196.621094 557.386719 C -226.5625 553.21875 -261.132812 551.019531 -290.425781 566.414062 C -319.910156 581.90625 -340.339844 615.351562 -342.457031 651.632812 C -344.347656 684.050781 -332.179688 719.109375 -309.0625 747.816406 C -289.464844 772.171875 -261.785156 793.074219 -226.808594 809.933594 L -226.105469 808.46875 Z M -198.542969 808.515625 C -233.289062 791.753906 -260.773438 771 -280.226562 746.839844 C -303.097656 718.425781 -315.136719 683.777344 -313.265625 651.761719 C -311.179688 616.035156 -291.09375 583.113281 -262.09375 567.878906 C -233.191406 552.695312 -198.949219 554.878906 -169.265625 559.015625 C -63.925781 573.695312 37.207031 550.464844 115.535156 493.609375 C 154.898438 465.03125 188.210938 427.269531 211.882812 384.390625 C 236.125 340.488281 249.566406 292.25 250.785156 244.921875 C 252.023438 196.40625 240.179688 147.632812 216.542969 103.855469 C 192.464844 59.285156 157.894531 23.363281 116.5625 -0.03125 L 115.765625 1.386719 C 198.085938 47.960938 251.683594 145.804688 249.15625 244.875 C 246.746094 338.988281 195.183594 433.785156 114.59375 492.289062 C 51.871094 537.804688 -25.527344 561.671875 -108.011719 561.671875 C -128.097656 561.671875 -148.480469 560.253906 -169.023438 557.386719 C -198.964844 553.21875 -233.535156 551.019531 -262.828125 566.414062 C -292.3125 581.90625 -312.742188 615.351562 -314.859375 651.632812 C -316.75 684.050781 -304.582031 719.109375 -281.464844 747.816406 C -261.867188 772.171875 -234.1875 793.074219 -199.210938 809.933594 L -198.507812 808.46875 Z M -170.945312 808.515625 C -205.695312 791.753906 -233.175781 771 -252.628906 746.839844 C -275.5 718.425781 -287.539062 683.777344 -285.667969 651.761719 C -283.582031 616.035156 -263.496094 583.113281 -234.496094 567.878906 C -205.597656 552.695312 -171.351562 554.878906 -141.667969 559.015625 C -36.347656 573.695312 64.804688 550.464844 143.132812 493.609375 C 182.492188 465.03125 215.808594 427.269531 239.480469 384.390625 C 263.722656 340.488281 277.164062 292.25 278.382812 244.921875 C 279.621094 196.40625 267.777344 147.632812 244.140625 103.855469 C 220.0625 59.285156 185.492188 23.363281 144.160156 -0.03125 L 143.363281 1.386719 C 225.683594 47.960938 279.28125 145.804688 276.753906 244.875 C 274.34375 338.988281 222.78125 433.785156 142.191406 492.289062 C 79.46875 537.804688 2.070312 561.671875 -80.414062 561.671875 C -100.5 561.671875 -120.882812 560.253906 -141.425781 557.386719 C -171.367188 553.21875 -205.9375 551.019531 -235.230469 566.414062 C -264.714844 581.90625 -285.144531 615.351562 -287.261719 651.632812 C -289.152344 684.050781 -276.984375 719.109375 -253.867188 747.816406 C -234.269531 772.171875 -206.589844 793.058594 -171.613281 809.933594 L -170.910156 808.46875 Z M -143.347656 808.515625 C -178.097656 791.753906 -205.578125 771 -225.03125 746.839844 C -247.902344 718.425781 -259.941406 683.777344 -258.070312 651.761719 C -255.984375 616.035156 -235.898438 583.113281 -206.898438 567.878906 C -178 552.695312 -143.753906 554.878906 -114.070312 559.015625 C -8.75 573.695312 92.402344 550.464844 170.730469 493.609375 C 210.089844 465.03125 243.40625 427.269531 267.078125 384.390625 C 291.320312 340.488281 304.757812 292.25 305.980469 244.921875 C 307.21875 196.40625 295.375 147.632812 271.738281 103.855469 C 247.660156 59.285156 213.089844 23.363281 171.757812 -0.03125 L 170.960938 1.386719 C 253.28125 47.960938 306.878906 145.804688 304.351562 244.875 C 301.941406 338.988281 250.378906 433.785156 169.785156 492.289062 C 107.066406 537.804688 29.664062 561.671875 -52.816406 561.671875 C -72.902344 561.671875 -93.285156 560.253906 -113.828125 557.386719 C -143.769531 553.21875 -178.339844 551.019531 -207.632812 566.414062 C -237.121094 581.90625 -257.546875 615.351562 -259.667969 651.632812 C -261.554688 684.050781 -249.386719 719.109375 -226.269531 747.816406 C -206.671875 772.171875 -178.992188 793.074219 -144.015625 809.933594 L -143.3125 808.46875 Z M -143.347656 808.515625 " fill-opacity="1" fill-rule="nonzero"/></g></g></g></g></svg>