<svg xmlns="http://www.w3.org/2000/svg" xmlns:xlink="http://www.w3.org/1999/xlink" width="1920" zoomAndPan="magnify" viewBox="0 0 1440 809.999993" height="1080" preserveAspectRatio="xMidYMid meet" version="1.0"><defs><filter x="0%" y="0%" width="100%" height="100%" id="88dbf45a2d"><feColorMatrix values="0 0 0 0 1 0 0 0 0 1 0 0 0 0 1 0 0 0 1 0" color-interpolation-filters="sRGB"/></filter><mask id="c293ca4434"><g filter="url(#88dbf45a2d)"><rect x="-144" width="1728" fill="#000000" y="-80.999999" height="971.999992" fill-opacity="0.31"/></g></mask><clipPath id="024527fdaa"><rect x="0" width="810" y="0" height="810"/></clipPath><mask id="a5e235f91f"><g filter="url(#88dbf45a2d)"><rect x="-144" width="1728" fill="#000000" y="-80.999999" height="971.999992" fill-opacity="0.31"/></g></mask><clipPath id="2a342591cf"><path d="M 145 0 L 835 0 L 835 691 L 145 691 Z M 145 0 " clip-rule="nonzero"/></clipPath><clipPath id="6d8d658045"><path d="M 180 0 L 835 0 L 835 655 L 180 655 Z M 180 0 " clip-rule="nonzero"/></clipPath><clipPath id="4ce0e72300"><path d="M 216 0 L 835 0 L 835 619 L 216 619 Z M 216 0 " clip-rule="nonzero"/></clipPath><clipPath id="ad076cec5d"><path d="M 252 0 L 835 0 L 835 583 L 252 583 Z M 252 0 " clip-rule="nonzero"/></clipPath><clipPath id="ebabaf12ea"><path d="M 288 0 L 835 0 L 835 547 L 288 547 Z M 288 0 " clip-rule="nonzero"/></clipPath><clipPath id="a9852a9c78"><path d="M 324 0 L 835 0 L 835 511 L 324 511 Z M 324 0 " clip-rule="nonzero"/></clipPath><clipPath id="353c2bd9fe"><path d="M 360 0 L 835 0 L 835 476 L 360 476 Z M 360 0 " clip-rule="nonzero"/></clipPath><clipPath id="105932cc3c"><path d="M 395 0 L 835 0 L 835 440 L 395 440 Z M 395 0 " clip-rule="nonzero"/></clipPath><clipPath id="8cb536e205"><path d="M 431 0 L 835 0 L 835 404 L 431 404 Z M 431 0 " clip-rule="nonzero"/></clipPath><clipPath id="42f5dfeef5"><path d="M 467 0 L 835 0 L 835 368 L 467 368 Z M 467 0 " clip-rule="nonzero"/></clipPath><clipPath id="4b56c63a84"><path d="M 503 0 L 835 0 L 835 332 L 503 332 Z M 503 0 " clip-rule="nonzero"/></clipPath><clipPath id="b84252864d"><path d="M 539 0 L 835 0 L 835 297 L 539 297 Z M 539 0 " clip-rule="nonzero"/></clipPath><clipPath id="ef04f63623"><path d="M 574 0 L 835 0 L 835 261 L 574 261 Z M 574 0 " clip-rule="nonzero"/></clipPath><clipPath id="782e3a3641"><path d="M 610 0 L 835 0 L 835 225 L 610 225 Z M 610 0 " clip-rule="nonzero"/></clipPath><clipPath id="5223b24744"><path d="M 646 0 L 835 0 L 835 189 L 646 189 Z M 646 0 " clip-rule="nonzero"/></clipPath><clipPath id="1c39f7e84a"><path d="M 682 0 L 835 0 L 835 153 L 682 153 Z M 682 0 " clip-rule="nonzero"/></clipPath><clipPath id="271b685866"><path d="M 718 0 L 835 0 L 835 118 L 718 118 Z M 718 0 " clip-rule="nonzero"/></clipPath><clipPath id="30b30f95eb"><rect x="0" width="835" y="0" height="810"/></clipPath></defs><g mask="url(#c293ca4434)"><g transform="matrix(1, 0, 0, 1, 0, 0.000000000000039746)"><g clip-path="url(#024527fdaa)"><path fill="#ff771f" d="M 0.0507812 140.441406 C 109.453125 140.691406 212.75 167.003906 303.742188 213.929688 C 322.464844 223.585938 340.65625 234.132812 358.253906 245.519531 C 391.234375 266.855469 422.074219 291.1875 450.695312 317.839844 C 457.855469 324.507812 464.859375 331.335938 471.761719 338.269531 C 476.695312 343.21875 481.574219 348.222656 486.386719 353.289062 C 516.6875 385.167969 544.164062 419.804688 567.816406 457.144531 C 577.914062 473.078125 587.332031 489.488281 596.023438 506.332031 C 642.964844 597.304688 669.308594 700.585938 669.59375 809.980469 C 669.875 700.453125 643.683594 597.078125 597.476562 505.589844 C 588.90625 488.621094 579.667969 472.054688 569.789062 455.914062 C 546.589844 418.015625 519.960938 382.414062 489.871094 350.011719 C 485.082031 344.855469 480.199219 339.78125 475.214844 334.816406 C 468.234375 327.867188 461.050781 321.117188 453.734375 314.519531 C 424.539062 288.207031 392.914062 264.582031 359.433594 243.65625 C 341.613281 232.519531 323.257812 222.164062 304.402344 212.636719 C 212.929688 166.410156 109.574219 140.1875 0.0507812 140.441406 Z M 0.0507812 140.441406 " fill-opacity="1" fill-rule="evenodd"/><path fill="#ff771f" d="M 0.0585938 175.191406 C 103.78125 175.445312 201.714844 200.394531 287.96875 244.902344 C 305.714844 254.058594 322.957031 264.0625 339.636719 274.863281 C 370.894531 295.105469 400.109375 318.191406 427.234375 343.464844 C 434.015625 349.792969 440.652344 356.269531 447.199219 362.84375 C 451.871094 367.535156 456.496094 372.277344 461.058594 377.078125 C 489.792969 407.289062 515.867188 440.101562 538.304688 475.488281 C 547.882812 490.59375 556.816406 506.148438 565.058594 522.113281 C 609.582031 608.351562 634.566406 706.265625 634.847656 809.980469 C 635.128906 706.132812 610.300781 608.125 566.511719 521.371094 C 558.390625 505.28125 549.636719 489.566406 540.277344 474.261719 C 518.292969 438.3125 493.066406 404.535156 464.546875 373.800781 C 460.003906 368.910156 455.375 364.097656 450.648438 359.390625 C 444.027344 352.800781 437.214844 346.402344 430.273438 340.152344 C 402.578125 315.210938 372.574219 292.828125 340.820312 273.003906 C 323.917969 262.449219 306.507812 252.632812 288.628906 243.605469 C 201.890625 199.796875 103.898438 174.9375 0.0585938 175.191406 Z M 0.0585938 175.191406 " fill-opacity="1" fill-rule="evenodd"/><path fill="#ff771f" d="M 0.0507812 209.941406 C 98.089844 210.195312 190.660156 233.78125 272.179688 275.871094 C 288.953125 284.53125 305.246094 293.996094 321.007812 304.210938 C 350.539062 323.355469 378.136719 345.195312 403.757812 369.097656 C 410.167969 375.078125 416.433594 381.203125 422.617188 387.414062 C 427.03125 391.851562 431.40625 396.328125 435.71875 400.863281 C 462.886719 429.414062 487.554688 460.398438 508.777344 493.835938 C 517.835938 508.109375 526.285156 522.804688 534.082031 537.890625 C 576.191406 619.394531 599.808594 711.949219 600.089844 809.980469 C 600.371094 711.816406 576.90625 619.167969 535.535156 537.148438 C 527.859375 521.9375 519.589844 507.078125 510.75 492.605469 C 489.980469 458.609375 466.160156 426.65625 439.207031 397.589844 C 434.914062 392.960938 430.539062 388.414062 426.066406 383.964844 C 419.808594 377.734375 413.363281 371.6875 406.796875 365.78125 C 380.601562 342.214844 352.21875 321.078125 322.1875 302.351562 C 306.203125 292.378906 289.746094 283.105469 272.84375 274.574219 C 190.839844 233.1875 98.210938 209.691406 0.0507812 209.941406 Z M 0.0507812 209.941406 " fill-opacity="1" fill-rule="evenodd"/><path fill="#ff771f" d="M 0.0546875 244.691406 C 92.410156 244.945312 179.621094 267.167969 256.40625 306.839844 C 272.203125 315.003906 287.546875 323.925781 302.386719 333.554688 C 330.195312 351.605469 356.171875 372.199219 380.292969 394.726562 C 386.328125 400.363281 392.226562 406.136719 398.046875 411.988281 C 402.207031 416.167969 406.328125 420.382812 410.390625 424.652344 C 435.992188 451.53125 459.253906 480.695312 479.261719 512.179688 C 487.800781 525.617188 495.769531 539.460938 503.117188 553.671875 C 542.804688 630.4375 565.0625 717.628906 565.34375 809.984375 C 565.625 717.496094 543.523438 630.210938 504.566406 552.929688 C 497.34375 538.59375 489.558594 524.59375 481.234375 510.949219 C 461.683594 478.90625 439.265625 448.777344 413.878906 421.378906 C 409.835938 417.015625 405.714844 412.730469 401.5 408.535156 C 395.601562 402.667969 389.523438 396.976562 383.332031 391.410156 C 358.636719 369.21875 331.875 349.328125 303.570312 331.695312 C 288.507812 322.308594 272.996094 313.578125 257.066406 305.546875 C 179.800781 266.574219 92.53125 244.441406 0.0546875 244.691406 Z M 0.0546875 244.691406 " fill-opacity="1" fill-rule="evenodd"/><path fill="#ff771f" d="M 0.0625 279.441406 C 86.738281 279.695312 168.582031 300.554688 240.632812 337.8125 C 255.453125 345.476562 269.851562 353.851562 283.773438 362.898438 C 309.855469 379.851562 334.210938 399.203125 356.832031 420.355469 C 362.488281 425.648438 368.019531 431.070312 373.484375 436.558594 C 377.382812 440.480469 381.25 444.4375 385.066406 448.441406 C 409.097656 473.652344 430.957031 500.992188 449.75 530.523438 C 457.769531 543.128906 465.25 556.113281 472.152344 569.449219 C 509.425781 641.484375 530.316406 723.3125 530.597656 809.980469 C 530.878906 723.175781 510.144531 641.253906 473.605469 568.707031 C 466.824219 555.25 459.523438 542.101562 451.722656 529.296875 C 433.382812 499.203125 412.371094 470.894531 388.550781 445.164062 C 384.757812 441.066406 380.890625 437.046875 376.933594 433.109375 C 371.394531 427.597656 365.683594 422.257812 359.871094 417.039062 C 336.675781 396.222656 311.535156 377.574219 284.953125 361.039062 C 270.808594 352.238281 256.246094 344.050781 241.292969 336.515625 C 168.761719 299.960938 86.855469 279.191406 0.0625 279.441406 Z M 0.0625 279.441406 " fill-opacity="1" fill-rule="evenodd"/><path fill="#ff771f" d="M 0.0546875 314.195312 C 81.046875 314.445312 157.53125 333.945312 224.84375 368.78125 C 238.691406 375.949219 252.140625 383.785156 265.140625 392.246094 C 289.5 408.101562 312.234375 426.207031 333.355469 445.988281 C 338.636719 450.933594 343.800781 456 348.902344 461.132812 C 352.546875 464.796875 356.160156 468.492188 359.726562 472.230469 C 382.191406 495.773438 402.644531 521.289062 420.222656 548.871094 C 427.726562 560.644531 434.722656 572.773438 441.171875 585.230469 C 476.027344 652.527344 495.558594 728.992188 495.839844 809.980469 C 496.125 728.859375 476.746094 652.300781 442.628906 584.488281 C 436.296875 571.90625 429.480469 559.617188 422.195312 547.640625 C 405.074219 519.503906 385.46875 493.019531 363.210938 468.957031 C 359.667969 465.125 356.054688 461.359375 352.351562 457.683594 C 347.171875 452.53125 341.835938 447.546875 336.394531 442.667969 C 314.699219 423.226562 291.179688 405.824219 266.324219 390.386719 C 253.097656 382.171875 239.484375 374.523438 225.507812 367.488281 C 157.710938 333.347656 81.167969 313.941406 0.0546875 314.195312 Z M 0.0546875 314.195312 " fill-opacity="1" fill-rule="evenodd"/><path fill="#ff771f" d="M 0.0585938 348.945312 C 75.371094 349.195312 146.492188 367.332031 209.070312 399.753906 C 221.945312 406.421875 234.445312 413.710938 246.527344 421.589844 C 269.160156 436.347656 290.273438 453.210938 309.890625 471.613281 C 314.800781 476.21875 319.59375 480.933594 324.335938 485.703125 C 327.722656 489.109375 331.082031 492.546875 334.398438 496.015625 C 355.296875 517.894531 374.347656 541.585938 390.707031 567.214844 C 397.691406 578.15625 404.207031 589.429688 410.207031 601.007812 C 442.648438 663.570312 460.8125 734.675781 461.09375 809.984375 C 461.378906 734.542969 443.367188 663.347656 411.664062 600.269531 C 405.78125 588.5625 399.449219 577.128906 392.679688 565.984375 C 376.773438 539.800781 358.570312 515.136719 337.886719 492.746094 C 334.589844 489.175781 331.226562 485.675781 327.785156 482.253906 C 322.96875 477.464844 317.992188 472.828125 312.929688 468.296875 C 292.738281 450.230469 270.839844 434.074219 247.710938 419.730469 C 235.402344 412.097656 222.734375 404.996094 209.734375 398.457031 C 146.671875 366.734375 75.492188 348.691406 0.0585938 348.945312 Z M 0.0585938 348.945312 " fill-opacity="1" fill-rule="evenodd"/><path fill="#ff771f" d="M 0.0507812 383.695312 C 69.683594 383.949219 135.441406 400.71875 193.285156 430.722656 C 205.179688 436.890625 216.730469 443.640625 227.894531 450.933594 C 248.804688 464.597656 268.296875 480.214844 286.417969 497.242188 C 290.945312 501.503906 295.375 505.867188 299.753906 510.277344 C 302.882812 513.425781 305.988281 516.597656 309.058594 519.804688 C 328.390625 540.011719 346.039062 561.886719 361.179688 585.558594 C 367.648438 595.667969 373.675781 606.085938 379.230469 616.789062 C 409.253906 674.613281 426.054688 740.355469 426.335938 809.980469 C 426.621094 740.222656 409.96875 674.390625 380.6875 616.046875 C 375.25 605.21875 369.402344 594.644531 363.152344 584.332031 C 348.464844 560.097656 331.664062 537.257812 312.546875 516.53125 C 309.5 513.230469 306.390625 509.992188 303.207031 506.824219 C 298.746094 502.398438 294.140625 498.113281 289.453125 493.925781 C 270.757812 477.234375 250.484375 462.320312 229.078125 449.074219 C 217.691406 442.027344 205.972656 435.46875 193.945312 429.425781 C 135.617188 400.121094 69.800781 383.441406 0.0507812 383.695312 Z M 0.0507812 383.695312 " fill-opacity="1" fill-rule="evenodd"/><path fill="#ff771f" d="M 0.0546875 418.445312 C 64.007812 418.695312 124.398438 434.105469 177.507812 461.691406 C 188.429688 467.363281 199.035156 473.570312 209.277344 480.28125 C 228.464844 492.847656 246.332031 507.21875 262.953125 522.875 C 267.105469 526.789062 271.164062 530.796875 275.1875 534.851562 C 278.058594 537.738281 280.910156 540.652344 283.730469 543.59375 C 301.496094 562.136719 317.738281 582.179688 331.664062 603.90625 C 337.613281 613.183594 343.160156 622.742188 348.265625 632.566406 C 375.871094 685.660156 391.308594 746.035156 391.589844 809.984375 C 391.875 745.902344 376.589844 685.433594 349.722656 631.824219 C 344.734375 621.875 339.367188 612.152344 333.636719 602.675781 C 320.164062 580.394531 304.769531 559.378906 287.21875 540.320312 C 284.421875 537.285156 281.566406 534.304688 278.636719 531.398438 C 274.539062 527.328125 270.304688 523.398438 265.992188 519.554688 C 248.796875 504.238281 230.144531 490.570312 210.460938 478.421875 C 199.992188 471.957031 189.222656 465.941406 178.171875 460.394531 C 124.578125 433.507812 64.125 418.191406 0.0546875 418.445312 Z M 0.0546875 418.445312 " fill-opacity="1" fill-rule="evenodd"/><path fill="#ff771f" d="M 0.0625 453.195312 C 58.332031 453.449219 113.359375 467.492188 161.734375 492.660156 C 171.679688 497.835938 181.335938 503.5 190.660156 509.625 C 208.125 521.097656 224.367188 534.222656 239.488281 548.503906 C 243.269531 552.070312 246.957031 555.730469 250.621094 559.421875 C 253.234375 562.058594 255.832031 564.707031 258.40625 567.382812 C 274.601562 584.257812 289.4375 602.476562 302.148438 622.25 C 307.578125 630.695312 312.640625 639.398438 317.300781 648.347656 C 342.488281 696.703125 356.5625 751.71875 356.84375 809.980469 C 357.128906 751.585938 343.203125 696.476562 318.753906 647.605469 C 314.214844 638.53125 309.335938 629.667969 304.121094 621.019531 C 291.867188 600.691406 277.875 581.5 261.890625 564.109375 C 259.34375 561.339844 256.738281 558.621094 254.070312 555.972656 C 250.332031 552.261719 246.464844 548.683594 242.527344 545.183594 C 226.832031 531.242188 209.804688 518.820312 191.84375 507.765625 C 182.292969 501.886719 172.476562 496.414062 162.398438 491.363281 C 113.539062 466.898438 58.449219 452.945312 0.0625 453.195312 Z M 0.0625 453.195312 " fill-opacity="1" fill-rule="evenodd"/><path fill="#ff771f" d="M 0.0546875 487.945312 C 52.644531 488.199219 102.3125 500.878906 145.949219 523.628906 C 154.921875 528.308594 163.625 533.429688 172.03125 538.96875 C 187.769531 549.339844 202.394531 561.226562 216.015625 574.132812 C 219.417969 577.359375 222.742188 580.664062 226.039062 583.996094 C 228.398438 586.371094 230.742188 588.757812 233.066406 591.171875 C 247.695312 606.375 261.128906 622.773438 272.625 640.59375 C 277.535156 648.207031 282.113281 656.054688 286.324219 664.125 C 309.09375 707.75 321.804688 757.398438 322.085938 809.980469 C 322.371094 757.265625 309.8125 707.523438 287.78125 663.382812 C 283.6875 655.191406 279.292969 647.179688 274.597656 639.367188 C 263.554688 620.988281 250.972656 603.621094 236.550781 587.894531 C 234.253906 585.394531 231.90625 582.933594 229.492188 580.542969 C 226.113281 577.195312 222.613281 573.96875 219.054688 570.816406 C 204.859375 558.242188 189.453125 547.066406 173.214844 537.109375 C 164.585938 531.816406 155.714844 526.882812 146.609375 522.332031 C 102.488281 500.285156 52.761719 487.691406 0.0546875 487.945312 Z M 0.0546875 487.945312 " fill-opacity="1" fill-rule="evenodd"/><path fill="#ff771f" d="M 0.0585938 522.695312 C 46.964844 522.949219 91.273438 534.265625 130.175781 554.601562 C 138.171875 558.78125 145.925781 563.359375 153.414062 568.316406 C 167.429688 577.589844 180.429688 588.226562 192.550781 599.761719 C 195.578125 602.644531 198.53125 605.597656 201.472656 608.566406 C 203.574219 610.6875 205.664062 612.8125 207.738281 614.960938 C 220.804688 628.496094 232.828125 643.070312 243.109375 658.9375 C 247.503906 665.71875 251.59375 672.714844 255.359375 679.90625 C 275.710938 718.792969 287.058594 763.082031 287.34375 809.980469 C 287.625 762.945312 276.429688 718.566406 256.8125 679.164062 C 253.171875 671.847656 249.257812 664.691406 245.082031 657.710938 C 235.257812 641.285156 224.074219 625.742188 211.222656 611.683594 C 209.175781 609.445312 207.078125 607.25 204.925781 605.117188 C 201.90625 602.128906 198.773438 599.257812 195.589844 596.445312 C 182.894531 585.246094 169.109375 575.316406 154.597656 566.457031 C 146.886719 561.746094 138.964844 557.355469 130.835938 553.304688 C 91.449219 533.671875 47.085938 522.445312 0.0585938 522.695312 Z M 0.0585938 522.695312 " fill-opacity="1" fill-rule="evenodd"/><path fill="#ff771f" d="M 0.0507812 557.449219 C 41.277344 557.699219 80.21875 567.652344 114.390625 585.570312 C 121.410156 589.253906 128.21875 593.289062 134.789062 597.660156 C 147.078125 605.839844 158.453125 615.234375 169.074219 625.390625 C 171.726562 627.929688 174.3125 630.53125 176.894531 633.136719 C 178.738281 635.003906 180.574219 636.867188 182.398438 638.75 C 193.894531 650.617188 204.519531 663.367188 213.582031 677.285156 C 217.460938 683.234375 221.066406 689.371094 224.382812 695.683594 C 242.316406 729.835938 252.300781 768.761719 252.585938 809.980469 C 252.871094 768.628906 243.035156 729.613281 225.835938 694.941406 C 222.640625 688.503906 219.214844 682.207031 215.558594 676.054688 C 206.945312 661.582031 197.171875 647.863281 185.882812 635.472656 C 184.085938 633.5 182.242188 631.566406 180.34375 629.6875 C 177.6875 627.058594 174.925781 624.539062 172.113281 622.074219 C 160.917969 612.25 148.757812 603.5625 135.96875 595.800781 C 129.175781 591.675781 122.203125 587.828125 115.050781 584.273438 C 80.398438 567.058594 41.398438 557.195312 0.0507812 557.449219 Z M 0.0507812 557.449219 " fill-opacity="1" fill-rule="evenodd"/><path fill="#ff771f" d="M 0.0546875 592.199219 C 35.601562 592.449219 69.179688 601.042969 98.613281 616.539062 C 104.660156 619.726562 110.519531 623.21875 116.167969 627.003906 C 126.734375 634.089844 136.488281 642.234375 145.613281 651.019531 C 147.886719 653.214844 150.105469 655.460938 152.324219 657.710938 C 153.910156 659.316406 155.496094 660.921875 157.070312 662.535156 C 167.003906 672.742188 176.21875 683.664062 184.070312 695.628906 C 187.425781 700.746094 190.550781 706.027344 193.417969 711.464844 C 208.933594 740.878906 217.554688 774.441406 217.839844 809.980469 C 218.121094 774.308594 209.652344 740.652344 194.871094 710.722656 C 192.125 705.160156 189.179688 699.71875 186.039062 694.398438 C 178.644531 681.875 170.277344 669.984375 160.554688 659.261719 C 159.007812 657.554688 157.417969 655.882812 155.777344 654.261719 C 153.476562 651.992188 151.085938 649.824219 148.652344 647.703125 C 138.953125 639.257812 128.414062 631.8125 117.351562 625.144531 C 111.476562 621.605469 105.453125 618.300781 99.273438 615.246094 C 69.359375 600.449219 35.722656 591.949219 0.0546875 592.199219 Z M 0.0546875 592.199219 " fill-opacity="1" fill-rule="evenodd"/><path fill="#ff771f" d="M 0.0625 626.949219 C 29.925781 627.199219 58.140625 634.429688 82.839844 647.511719 C 87.910156 650.199219 92.820312 653.148438 97.550781 656.351562 C 106.394531 662.335938 114.523438 669.238281 122.148438 676.648438 C 124.050781 678.5 125.898438 680.394531 127.757812 682.285156 C 129.085938 683.632812 130.417969 684.972656 131.742188 686.324219 C 140.109375 694.863281 147.917969 703.960938 154.550781 713.972656 C 157.390625 718.257812 160.03125 722.683594 162.453125 727.242188 C 175.550781 751.925781 182.808594 780.125 183.09375 809.980469 C 183.375 779.992188 176.269531 751.699219 163.90625 726.5 C 161.605469 721.816406 159.148438 717.230469 156.527344 712.742188 C 150.347656 702.171875 143.382812 692.105469 135.226562 683.050781 C 133.929688 681.605469 132.59375 680.195312 131.210938 678.832031 C 129.273438 676.925781 127.246094 675.109375 125.1875 673.332031 C 116.988281 666.257812 108.074219 660.058594 98.734375 654.492188 C 93.78125 651.535156 88.703125 648.773438 83.5 646.214844 C 58.320312 633.832031 30.042969 626.695312 0.0625 626.949219 Z M 0.0625 626.949219 " fill-opacity="1" fill-rule="evenodd"/><path fill="#ff771f" d="M 0.0546875 661.699219 C 24.238281 661.953125 47.089844 667.816406 67.050781 678.480469 C 71.152344 680.671875 75.113281 683.078125 78.921875 685.695312 C 86.042969 690.585938 92.546875 696.242188 98.671875 702.277344 C 100.199219 703.78125 101.679688 705.328125 103.179688 706.855469 C 104.25 707.945312 105.328125 709.027344 106.402344 710.113281 C 113.203125 716.984375 119.609375 724.253906 125.027344 732.320312 C 127.347656 735.769531 129.503906 739.339844 131.476562 743.023438 C 142.15625 762.96875 148.054688 785.804688 148.335938 809.980469 C 148.617188 785.671875 142.863281 762.75 132.929688 742.28125 C 130.734375 737.761719 128.363281 733.355469 125.8125 729.0625 C 121.941406 722.550781 117.753906 716.265625 112.953125 710.449219 C 110.945312 708.011719 108.867188 705.628906 106.628906 703.40625 C 105.0625 701.847656 103.394531 700.394531 101.714844 698.960938 C 95.011719 693.261719 87.722656 688.308594 80.105469 683.835938 C 76.070312 681.464844 71.945312 679.246094 67.714844 677.183594 C 47.269531 667.222656 24.355469 661.445312 0.0546875 661.699219 Z M 0.0546875 661.699219 " fill-opacity="1" fill-rule="evenodd"/><path fill="#ff771f" d="M 0.0546875 696.449219 C 18.5625 696.703125 36.050781 701.203125 51.277344 709.449219 C 54.402344 711.140625 57.410156 713.007812 60.304688 715.042969 C 65.707031 718.835938 70.582031 723.242188 75.210938 727.910156 C 76.359375 729.066406 77.46875 730.257812 78.609375 731.429688 C 79.425781 732.261719 80.25 733.082031 81.074219 733.902344 C 86.3125 739.109375 91.308594 744.550781 95.511719 750.664062 C 97.3125 753.285156 98.984375 755.992188 100.511719 758.800781 C 108.773438 774.011719 113.308594 791.484375 113.589844 809.980469 C 113.875 791.351562 109.480469 773.792969 101.964844 758.058594 C 100.300781 754.578125 98.511719 751.1875 96.589844 747.867188 C 93.667969 742.828125 90.539062 737.945312 86.890625 733.429688 C 85.363281 731.535156 83.785156 729.6875 82.0625 727.976562 C 80.851562 726.78125 79.554688 725.679688 78.25 724.59375 C 73.046875 720.261719 67.386719 716.558594 61.488281 713.179688 C 58.371094 711.394531 55.195312 709.71875 51.9375 708.152344 C 36.230469 700.609375 18.679688 696.199219 0.0546875 696.449219 Z M 0.0546875 696.449219 " fill-opacity="1" fill-rule="evenodd"/></g></g></g><g mask="url(#a5e235f91f)"><g transform="matrix(1, 0, 0, 1, 605, 0.000000000000039746)"><g clip-path="url(#30b30f95eb)"><g clip-path="url(#2a342591cf)"><path fill="#ff771f" d="M 835.183594 690.019531 C 722.4375 689.761719 615.988281 662.640625 522.21875 614.28125 C 502.921875 604.332031 484.175781 593.460938 466.039062 581.726562 C 432.050781 559.738281 400.269531 534.667969 370.769531 507.199219 C 363.390625 500.328125 356.171875 493.289062 349.058594 486.144531 C 343.980469 481.042969 338.949219 475.886719 333.988281 470.667969 C 302.761719 437.8125 274.445312 402.117188 250.070312 363.636719 C 239.667969 347.214844 229.960938 330.304688 221.003906 312.945312 C 172.625 219.195312 145.476562 112.757812 145.1875 0.0195312 C 144.894531 112.894531 171.886719 219.425781 219.507812 313.710938 C 228.335938 331.199219 237.859375 348.273438 248.039062 364.902344 C 271.945312 403.960938 299.390625 440.652344 330.398438 474.042969 C 335.332031 479.359375 340.363281 484.585938 345.503906 489.703125 C 352.699219 496.863281 360.097656 503.820312 367.640625 510.621094 C 397.726562 537.738281 430.320312 562.085938 464.820312 583.648438 C 483.1875 595.125 502.105469 605.796875 521.535156 615.617188 C 615.800781 663.257812 722.316406 690.277344 835.183594 690.019531 Z M 835.183594 690.019531 " fill-opacity="1" fill-rule="evenodd"/></g><g clip-path="url(#6d8d658045)"><path fill="#ff771f" d="M 835.179688 654.207031 C 728.289062 653.945312 627.363281 628.234375 538.472656 582.363281 C 520.183594 572.925781 502.410156 562.617188 485.222656 551.488281 C 453.011719 530.625 422.902344 506.835938 394.953125 480.789062 C 387.960938 474.269531 381.121094 467.59375 374.375 460.820312 C 369.558594 455.984375 364.792969 451.097656 360.089844 446.152344 C 330.480469 415.015625 303.609375 381.199219 280.484375 344.730469 C 270.617188 329.164062 261.410156 313.136719 252.914062 296.683594 C 207.027344 207.8125 181.28125 106.902344 180.992188 0.0195312 C 180.703125 107.039062 206.289062 208.042969 251.414062 297.449219 C 259.785156 314.03125 268.804688 330.226562 278.453125 345.996094 C 301.109375 383.042969 327.105469 417.855469 356.5 449.527344 C 361.175781 454.570312 365.949219 459.527344 370.820312 464.375 C 377.644531 471.167969 384.664062 477.761719 391.820312 484.207031 C 420.359375 509.910156 451.28125 532.972656 484.003906 553.402344 C 501.425781 564.28125 519.367188 574.394531 537.789062 583.703125 C 627.175781 628.847656 728.167969 654.464844 835.179688 654.207031 Z M 835.179688 654.207031 " fill-opacity="1" fill-rule="evenodd"/></g><g clip-path="url(#4ce0e72300)"><path fill="#ff771f" d="M 835.1875 618.390625 C 734.152344 618.132812 638.753906 593.824219 554.742188 550.449219 C 537.457031 541.523438 520.664062 531.773438 504.421875 521.246094 C 473.988281 501.515625 445.546875 479.007812 419.144531 454.375 C 412.539062 448.210938 406.078125 441.898438 399.707031 435.496094 C 395.15625 430.925781 390.652344 426.3125 386.203125 421.636719 C 358.207031 392.214844 332.785156 360.285156 310.914062 325.824219 C 301.578125 311.117188 292.871094 295.972656 284.835938 280.421875 C 241.441406 196.429688 217.105469 101.046875 216.8125 0.0195312 C 216.519531 101.183594 240.703125 196.660156 283.339844 281.1875 C 291.25 296.863281 299.769531 312.175781 308.882812 327.089844 C 330.285156 362.125 354.832031 395.058594 382.613281 425.011719 C 387.035156 429.78125 391.542969 434.46875 396.152344 439.054688 C 402.605469 445.476562 409.246094 451.703125 416.011719 457.792969 C 443.007812 482.078125 472.257812 503.859375 503.203125 523.160156 C 519.675781 533.433594 536.640625 542.992188 554.058594 551.785156 C 638.570312 594.4375 734.027344 618.652344 835.1875 618.390625 Z M 835.1875 618.390625 " fill-opacity="1" fill-rule="evenodd"/></g><g clip-path="url(#ad076cec5d)"><path fill="#ff771f" d="M 835.183594 582.582031 C 740.003906 582.320312 650.128906 559.417969 571 518.53125 C 554.71875 510.121094 538.902344 500.929688 523.609375 491.003906 C 494.953125 472.402344 468.183594 451.179688 443.324219 427.960938 C 437.105469 422.152344 431.027344 416.203125 425.027344 410.175781 C 420.742188 405.867188 416.496094 401.523438 412.304688 397.121094 C 385.925781 369.421875 361.949219 339.367188 341.332031 306.917969 C 332.53125 293.070312 324.320312 278.804688 316.75 264.160156 C 275.847656 185.046875 252.910156 95.191406 252.621094 0.0195312 C 252.328125 95.328125 275.105469 185.28125 315.253906 264.925781 C 322.699219 279.699219 330.722656 294.128906 339.300781 308.1875 C 359.449219 341.207031 382.550781 372.261719 408.714844 400.496094 C 412.878906 404.992188 417.128906 409.410156 421.472656 413.730469 C 427.550781 419.78125 433.8125 425.644531 440.195312 431.378906 C 465.644531 454.25 493.222656 474.75 522.390625 492.921875 C 537.917969 502.589844 553.902344 511.589844 570.316406 519.867188 C 649.945312 560.03125 739.878906 582.839844 835.183594 582.582031 Z M 835.183594 582.582031 " fill-opacity="1" fill-rule="evenodd"/></g><g clip-path="url(#ebabaf12ea)"><path fill="#ff771f" d="M 835.175781 546.769531 C 745.851562 546.507812 661.503906 525.011719 587.253906 486.617188 C 571.976562 478.71875 557.140625 470.085938 542.792969 460.761719 C 515.914062 443.292969 490.816406 423.351562 467.503906 401.550781 C 461.675781 396.097656 455.972656 390.511719 450.34375 384.851562 C 446.324219 380.8125 442.339844 376.734375 438.40625 372.609375 C 413.640625 346.625 391.113281 318.449219 371.746094 288.015625 C 363.480469 275.023438 355.769531 261.640625 348.660156 247.902344 C 310.25 173.667969 288.71875 89.339844 288.429688 0.0195312 C 288.136719 89.476562 309.507812 173.902344 347.164062 248.664062 C 354.148438 262.535156 361.671875 276.082031 369.714844 289.28125 C 388.609375 320.292969 410.265625 349.464844 434.8125 375.984375 C 438.722656 380.203125 442.710938 384.351562 446.789062 388.40625 C 452.496094 394.085938 458.378906 399.589844 464.371094 404.96875 C 488.277344 426.421875 514.183594 445.636719 541.578125 462.679688 C 556.15625 471.746094 571.164062 480.1875 586.570312 487.953125 C 661.320312 525.625 745.726562 547.03125 835.175781 546.769531 Z M 835.175781 546.769531 " fill-opacity="1" fill-rule="evenodd"/></g><g clip-path="url(#a9852a9c78)"><path fill="#ff771f" d="M 835.183594 510.957031 C 751.714844 510.695312 672.894531 490.601562 603.523438 454.699219 C 589.253906 447.3125 575.394531 439.238281 561.996094 430.519531 C 536.890625 414.179688 513.464844 395.519531 491.695312 375.136719 C 486.253906 370.039062 480.933594 364.816406 475.675781 359.527344 C 471.921875 355.75 468.195312 351.945312 464.519531 348.089844 C 441.367188 323.828125 420.289062 297.53125 402.175781 269.109375 C 394.445312 256.972656 387.230469 244.476562 380.585938 231.636719 C 344.664062 162.285156 324.539062 83.480469 324.246094 0.0195312 C 323.953125 83.621094 343.921875 162.519531 379.085938 232.402344 C 385.609375 245.367188 392.632812 258.035156 400.144531 270.375 C 417.789062 299.371094 437.992188 326.667969 460.925781 351.464844 C 464.578125 355.414062 468.304688 359.292969 472.117188 363.082031 C 477.457031 368.390625 482.957031 373.53125 488.566406 378.554688 C 510.921875 398.589844 535.160156 416.523438 560.773438 432.4375 C 574.40625 440.902344 588.4375 448.78125 602.839844 456.035156 C 672.710938 491.214844 751.589844 511.214844 835.183594 510.957031 Z M 835.183594 510.957031 " fill-opacity="1" fill-rule="evenodd"/></g><g clip-path="url(#353c2bd9fe)"><path fill="#ff771f" d="M 835.179688 475.144531 C 757.5625 474.882812 684.269531 456.195312 619.78125 422.78125 C 606.511719 415.910156 593.632812 408.394531 581.179688 400.277344 C 557.855469 385.066406 536.097656 367.691406 515.878906 348.726562 C 510.820312 343.980469 505.878906 339.121094 500.992188 334.207031 C 497.503906 330.695312 494.042969 327.15625 490.621094 323.578125 C 469.085938 301.03125 449.453125 276.613281 432.59375 250.203125 C 425.394531 238.925781 418.683594 227.308594 412.496094 215.375 C 379.066406 150.902344 360.34375 77.628906 360.054688 0.015625 C 359.761719 77.765625 378.324219 151.136719 410.996094 216.140625 C 417.058594 228.203125 423.585938 239.984375 430.558594 251.46875 C 446.953125 278.457031 465.710938 303.871094 487.027344 326.949219 C 490.421875 330.625 493.890625 334.234375 497.4375 337.761719 C 502.402344 342.695312 507.527344 347.472656 512.746094 352.140625 C 533.558594 370.761719 556.121094 387.414062 579.960938 402.195312 C 592.644531 410.058594 605.695312 417.378906 619.097656 424.117188 C 684.085938 456.808594 757.441406 475.402344 835.179688 475.144531 Z M 835.179688 475.144531 " fill-opacity="1" fill-rule="evenodd"/></g><g clip-path="url(#105932cc3c)"><path fill="#ff771f" d="M 835.1875 439.332031 C 763.425781 439.070312 695.660156 421.789062 636.046875 390.867188 C 623.789062 384.507812 611.882812 377.554688 600.378906 370.035156 C 578.828125 355.957031 558.746094 339.863281 540.070312 322.3125 C 535.402344 317.925781 530.839844 313.425781 526.324219 308.882812 C 523.101562 305.636719 519.898438 302.367188 516.734375 299.0625 C 496.8125 278.234375 478.628906 255.695312 463.023438 231.296875 C 456.355469 220.878906 450.144531 210.144531 444.417969 199.117188 C 413.480469 139.523438 396.164062 71.769531 395.875 0.0195312 C 395.582031 71.910156 412.742188 139.753906 442.921875 199.878906 C 448.523438 211.035156 454.546875 221.9375 460.988281 232.5625 C 476.125 257.539062 493.441406 281.074219 513.140625 302.4375 C 516.28125 305.835938 519.484375 309.175781 522.769531 312.4375 C 527.363281 317.003906 532.109375 321.414062 536.9375 325.730469 C 556.207031 342.933594 577.097656 358.300781 599.160156 371.953125 C 610.894531 379.214844 622.972656 385.976562 635.367188 392.203125 C 695.476562 422.402344 763.304688 439.59375 835.1875 439.332031 Z M 835.1875 439.332031 " fill-opacity="1" fill-rule="evenodd"/></g><g clip-path="url(#8cb536e205)"><path fill="#ff771f" d="M 835.183594 403.519531 C 769.277344 403.257812 707.039062 387.382812 652.304688 358.953125 C 641.050781 353.105469 630.121094 346.707031 619.566406 339.792969 C 599.792969 326.84375 581.378906 312.035156 564.25 295.898438 C 559.96875 291.867188 555.785156 287.734375 551.640625 283.558594 C 548.683594 280.578125 545.742188 277.578125 542.835938 274.546875 C 524.527344 255.4375 507.792969 234.78125 493.4375 212.390625 C 487.308594 202.832031 481.59375 192.976562 476.328125 182.855469 C 447.882812 128.140625 431.972656 65.917969 431.683594 0.0195312 C 431.390625 66.054688 447.140625 128.371094 474.832031 183.617188 C 479.972656 193.871094 485.5 203.890625 491.40625 213.660156 C 505.289062 236.621094 521.15625 258.277344 539.246094 277.921875 C 542.125 281.046875 545.070312 284.117188 548.085938 287.113281 C 552.3125 291.308594 556.675781 295.355469 561.121094 299.320312 C 578.839844 315.105469 598.0625 329.191406 618.34375 341.710938 C 629.136719 348.371094 640.234375 354.574219 651.621094 360.289062 C 706.851562 387.996094 769.152344 403.777344 835.183594 403.519531 Z M 835.183594 403.519531 " fill-opacity="1" fill-rule="evenodd"/></g><g clip-path="url(#42f5dfeef5)"><path fill="#ff771f" d="M 835.175781 367.707031 C 775.125 367.445312 718.414062 352.972656 668.5625 327.035156 C 658.3125 321.699219 648.363281 315.863281 638.75 309.550781 C 620.753906 297.730469 604.011719 284.207031 588.429688 269.488281 C 584.539062 265.808594 580.734375 262.035156 576.960938 258.234375 C 574.265625 255.519531 571.589844 252.789062 568.9375 250.03125 C 552.246094 232.640625 536.957031 213.863281 523.855469 193.488281 C 518.261719 184.785156 513.042969 175.8125 508.242188 166.59375 C 482.285156 116.757812 467.78125 60.0625 467.488281 0.0195312 C 467.199219 60.199219 481.546875 116.992188 506.742188 167.359375 C 511.421875 176.707031 516.449219 185.84375 521.824219 194.753906 C 534.453125 215.703125 548.871094 235.480469 565.347656 253.40625 C 567.96875 256.261719 570.652344 259.058594 573.40625 261.789062 C 577.257812 265.613281 581.242188 269.300781 585.300781 272.90625 C 601.472656 287.277344 619.023438 300.078125 637.53125 311.46875 C 647.375 317.527344 657.492188 323.167969 667.878906 328.371094 C 718.230469 353.585938 775.003906 367.964844 835.175781 367.707031 Z M 835.175781 367.707031 " fill-opacity="1" fill-rule="evenodd"/></g><g clip-path="url(#4b56c63a84)"><path fill="#ff771f" d="M 835.183594 331.894531 C 780.988281 331.632812 729.800781 318.566406 684.828125 295.121094 C 675.582031 290.296875 666.613281 285.019531 657.949219 279.3125 C 641.730469 268.621094 626.660156 256.375 612.625 243.074219 C 609.117188 239.75 605.691406 236.34375 602.289062 232.910156 C 599.859375 230.460938 597.445312 228 595.050781 225.515625 C 579.972656 209.847656 566.128906 192.945312 554.28125 174.582031 C 549.222656 166.738281 544.503906 158.648438 540.164062 150.332031 C 516.699219 105.375 503.601562 54.207031 503.308594 0.0195312 C 503.015625 54.347656 515.960938 105.609375 538.664062 151.097656 C 542.878906 159.539062 547.410156 167.796875 552.25 175.847656 C 563.628906 194.789062 576.597656 212.6875 591.460938 228.890625 C 593.824219 231.46875 596.246094 234.003906 598.734375 236.46875 C 602.214844 239.917969 605.820312 243.242188 609.492188 246.492188 C 624.121094 259.449219 639.996094 270.96875 656.730469 281.226562 C 665.625 286.683594 674.765625 291.765625 684.148438 296.457031 C 729.617188 319.179688 780.863281 332.15625 835.183594 331.894531 Z M 835.183594 331.894531 " fill-opacity="1" fill-rule="evenodd"/></g><g clip-path="url(#b84252864d)"><path fill="#ff771f" d="M 835.179688 296.082031 C 786.835938 295.820312 741.175781 284.15625 701.085938 263.203125 C 692.84375 258.894531 684.851562 254.175781 677.136719 249.070312 C 662.691406 239.507812 649.296875 228.546875 636.804688 216.664062 C 633.683594 213.691406 630.640625 210.648438 627.609375 207.585938 C 625.445312 205.402344 623.289062 203.210938 621.152344 201 C 607.6875 187.046875 595.292969 172.03125 584.699219 155.675781 C 580.171875 148.6875 575.953125 141.480469 572.078125 134.070312 C 551.101562 93.996094 539.40625 48.355469 539.113281 0.0195312 C 538.824219 48.492188 550.363281 94.226562 570.578125 134.832031 C 574.332031 142.375 578.363281 149.746094 582.667969 156.941406 C 592.792969 173.871094 604.316406 189.886719 617.5625 204.375 C 619.671875 206.683594 621.832031 208.945312 624.054688 211.144531 C 627.164062 214.222656 630.390625 217.183594 633.671875 220.082031 C 646.753906 231.621094 660.960938 241.855469 675.914062 250.988281 C 683.863281 255.839844 692.027344 260.363281 700.40625 264.539062 C 740.992188 284.773438 786.714844 296.339844 835.179688 296.082031 Z M 835.179688 296.082031 " fill-opacity="1" fill-rule="evenodd"/></g><g clip-path="url(#ef04f63623)"><path fill="#ff771f" d="M 835.183594 260.269531 C 792.699219 260.007812 752.566406 249.75 717.355469 231.285156 C 710.117188 227.492188 703.101562 223.332031 696.332031 218.828125 C 683.667969 210.398438 671.941406 200.71875 660.996094 190.25 C 658.261719 187.632812 655.597656 184.953125 652.9375 182.265625 C 651.039062 180.34375 649.144531 178.421875 647.265625 176.484375 C 635.417969 164.25 624.472656 151.113281 615.128906 136.769531 C 611.132812 130.640625 607.417969 124.316406 604 117.808594 C 585.515625 82.613281 575.226562 42.496094 574.9375 0.0195312 C 574.640625 42.636719 584.777344 82.84375 602.5 118.574219 C 605.792969 125.207031 609.324219 131.699219 613.09375 138.039062 C 621.96875 152.953125 632.042969 167.089844 643.675781 179.859375 C 645.527344 181.894531 647.425781 183.886719 649.382812 185.820312 C 652.121094 188.53125 654.96875 191.125 657.867188 193.667969 C 669.402344 203.792969 681.933594 212.742188 695.113281 220.742188 C 702.113281 224.996094 709.300781 228.960938 716.671875 232.625 C 752.382812 250.363281 792.578125 260.527344 835.183594 260.269531 Z M 835.183594 260.269531 " fill-opacity="1" fill-rule="evenodd"/></g><g clip-path="url(#782e3a3641)"><path fill="#ff771f" d="M 835.179688 224.457031 C 798.550781 224.195312 763.945312 215.34375 733.613281 199.371094 C 727.378906 196.089844 721.339844 192.488281 715.519531 188.585938 C 704.628906 181.285156 694.578125 172.890625 685.175781 163.835938 C 682.832031 161.578125 680.546875 159.257812 678.257812 156.941406 C 676.625 155.289062 674.992188 153.636719 673.371094 151.96875 C 663.132812 141.453125 653.636719 130.195312 645.546875 117.867188 C 642.085938 112.59375 638.867188 107.148438 635.910156 101.546875 C 619.921875 71.234375 611.035156 36.644531 610.742188 0.0195312 C 610.453125 36.78125 619.179688 71.464844 634.414062 102.3125 C 637.242188 108.042969 640.277344 113.652344 643.511719 119.132812 C 651.132812 132.039062 659.761719 144.292969 669.777344 155.34375 C 671.375 157.105469 673.011719 158.828125 674.703125 160.496094 C 677.070312 162.835938 679.535156 165.070312 682.042969 167.253906 C 692.039062 175.960938 702.898438 183.632812 714.300781 190.503906 C 720.355469 194.152344 726.5625 197.558594 732.929688 200.707031 C 763.761719 215.957031 798.425781 224.714844 835.179688 224.457031 Z M 835.179688 224.457031 " fill-opacity="1" fill-rule="evenodd"/></g><g clip-path="url(#5223b24744)"><path fill="#ff771f" d="M 835.175781 188.644531 C 804.398438 188.386719 775.320312 180.933594 749.871094 167.453125 C 744.640625 164.683594 739.582031 161.644531 734.707031 158.34375 C 725.589844 152.175781 717.214844 145.0625 709.355469 137.425781 C 707.398438 135.519531 705.492188 133.5625 703.574219 131.617188 C 702.207031 130.230469 700.832031 128.847656 699.46875 127.453125 C 690.847656 118.65625 682.800781 109.28125 675.964844 98.960938 C 673.039062 94.542969 670.316406 89.984375 667.824219 85.285156 C 654.324219 59.851562 646.84375 30.789062 646.550781 0.0195312 C 646.257812 30.925781 653.582031 60.082031 666.324219 86.050781 C 668.695312 90.878906 671.226562 95.605469 673.929688 100.226562 C 680.296875 111.121094 687.476562 121.496094 695.878906 130.828125 C 697.21875 132.316406 698.59375 133.769531 700.019531 135.175781 C 702.015625 137.140625 704.105469 139.011719 706.226562 140.84375 C 714.675781 148.132812 723.859375 154.519531 733.484375 160.261719 C 738.589844 163.304688 743.824219 166.152344 749.1875 168.789062 C 775.136719 181.550781 804.277344 188.90625 835.175781 188.644531 Z M 835.175781 188.644531 " fill-opacity="1" fill-rule="evenodd"/></g><g clip-path="url(#1c39f7e84a)"><path fill="#ff771f" d="M 835.183594 152.832031 C 810.261719 152.570312 786.707031 146.527344 766.136719 135.539062 C 761.914062 133.28125 757.832031 130.800781 753.902344 128.101562 C 746.566406 123.0625 739.863281 117.234375 733.550781 111.011719 C 731.976562 109.460938 730.453125 107.871094 728.90625 106.296875 C 727.804688 105.171875 726.691406 104.058594 725.582031 102.9375 C 718.574219 95.859375 711.972656 88.367188 706.390625 80.054688 C 704 76.5 701.777344 72.820312 699.746094 69.023438 C 688.738281 48.46875 682.660156 24.933594 682.371094 0.0195312 C 682.078125 25.074219 688.007812 48.695312 698.246094 69.789062 C 700.507812 74.445312 702.949219 78.984375 705.582031 83.410156 C 709.570312 90.121094 713.886719 96.597656 718.832031 102.59375 C 720.902344 105.105469 723.042969 107.558594 725.351562 109.851562 C 726.964844 111.457031 728.683594 112.953125 730.417969 114.429688 C 737.320312 120.304688 744.832031 125.40625 752.683594 130.019531 C 756.84375 132.464844 761.097656 134.75 765.453125 136.875 C 786.523438 147.140625 810.136719 153.09375 835.183594 152.832031 Z M 835.183594 152.832031 " fill-opacity="1" fill-rule="evenodd"/></g><g clip-path="url(#271b685866)"><path fill="#ff771f" d="M 835.179688 117.019531 C 816.109375 116.761719 798.085938 112.121094 782.394531 103.621094 C 779.175781 101.878906 776.070312 99.953125 773.089844 97.859375 C 767.523438 93.949219 762.5 89.40625 757.730469 84.597656 C 756.546875 83.40625 755.402344 82.175781 754.226562 80.972656 C 753.386719 80.113281 752.535156 79.269531 751.683594 78.421875 C 746.289062 73.058594 741.140625 67.449219 736.808594 61.148438 C 734.953125 58.449219 733.226562 55.65625 731.65625 52.765625 C 723.140625 37.085938 718.46875 19.078125 718.175781 0.0195312 C 717.886719 19.21875 722.414062 37.3125 730.160156 53.527344 C 731.871094 57.113281 733.714844 60.609375 735.695312 64.03125 C 738.707031 69.226562 741.933594 74.257812 745.691406 78.910156 C 747.265625 80.859375 748.890625 82.765625 750.671875 84.527344 C 751.914062 85.761719 753.25 86.898438 754.597656 88.015625 C 759.960938 92.476562 765.792969 96.292969 771.871094 99.777344 C 775.082031 101.617188 778.355469 103.347656 781.710938 104.957031 C 797.902344 112.734375 815.988281 117.28125 835.179688 117.019531 Z M 835.179688 117.019531 " fill-opacity="1" fill-rule="evenodd"/></g></g></g></g></svg>