<svg xmlns="http://www.w3.org/2000/svg" xmlns:xlink="http://www.w3.org/1999/xlink" viewBox="330 600 850 260" preserveAspectRatio="xMidYMid meet" version="1.0"><defs><g/><clipPath id="5743d70f1b"><path d="M 444.25 611.417969 L 529.035156 611.417969 L 529.035156 696.207031 L 444.25 696.207031 Z M 444.25 611.417969 " clip-rule="nonzero"/></clipPath><clipPath id="228b399f2e"><path d="M 486.644531 611.417969 L 444.25 653.8125 L 465.445312 653.8125 L 465.445312 696.207031 L 507.839844 696.207031 L 507.839844 653.8125 L 529.035156 653.8125 Z M 486.644531 611.417969 " clip-rule="nonzero"/></clipPath><clipPath id="791294a624"><path d="M 0.25 0.417969 L 85.035156 0.417969 L 85.035156 85.207031 L 0.25 85.207031 Z M 0.25 0.417969 " clip-rule="nonzero"/></clipPath><clipPath id="cae7841a8a"><path d="M 42.644531 0.417969 L 0.25 42.8125 L 21.445312 42.8125 L 21.445312 85.207031 L 63.839844 85.207031 L 63.839844 42.8125 L 85.035156 42.8125 Z M 42.644531 0.417969 " clip-rule="nonzero"/></clipPath><clipPath id="8706390741"><rect x="0" width="86" y="0" height="86"/></clipPath></defs><g fill="#1a1a1a" fill-opacity="1"><g transform="translate(338.96643, 803.007223)"><g><path d="M 116.171875 -88.8125 C 125.660156 -78.476562 130.40625 -65.800781 130.40625 -50.78125 C 130.40625 -35.757812 125.660156 -23.046875 116.171875 -12.640625 C 106.691406 -2.234375 94.644531 2.96875 80.03125 2.96875 C 66.59375 2.96875 55.523438 -1.25 46.828125 -9.6875 L 46.828125 51.375 L 11.859375 51.375 L 11.859375 -101.359375 L 46.4375 -101.359375 L 46.4375 -89.90625 L 46.828125 -89.90625 C 55.523438 -99.519531 66.59375 -104.328125 80.03125 -104.328125 C 94.644531 -104.328125 106.691406 -99.15625 116.171875 -88.8125 Z M 86.4375 -33.59375 C 90.988281 -38.070312 93.265625 -43.800781 93.265625 -50.78125 C 93.265625 -57.757812 91.085938 -63.457031 86.734375 -67.875 C 82.390625 -72.289062 76.660156 -74.5 69.546875 -74.5 C 62.703125 -74.5 57.070312 -72.257812 52.65625 -67.78125 C 48.25 -63.300781 46.046875 -57.632812 46.046875 -50.78125 C 46.046875 -43.800781 48.316406 -38.070312 52.859375 -33.59375 C 57.398438 -29.113281 62.960938 -26.875 69.546875 -26.875 C 76.265625 -26.875 81.894531 -29.113281 86.4375 -33.59375 Z M 86.4375 -33.59375 "/></g></g></g><g fill="#1a1a1a" fill-opacity="1"><g transform="translate(457.123349, 803.007223)"><g><path d="M 15.21875 -157.875 C 19.300781 -161.957031 24.171875 -164 29.828125 -164 C 35.492188 -164 40.367188 -161.957031 44.453125 -157.875 C 48.535156 -153.789062 50.578125 -148.914062 50.578125 -143.25 C 50.578125 -137.59375 48.535156 -132.722656 44.453125 -128.640625 C 40.367188 -124.554688 35.492188 -122.515625 29.828125 -122.515625 C 24.171875 -122.515625 19.300781 -124.554688 15.21875 -128.640625 C 11.132812 -132.722656 9.09375 -137.59375 9.09375 -143.25 C 9.09375 -148.914062 11.132812 -153.789062 15.21875 -157.875 Z M 11.859375 -101.359375 L 11.859375 0 L 46.828125 0 L 46.828125 -101.359375 Z M 11.859375 -101.359375 "/></g></g></g><g fill="#1a1a1a" fill-opacity="1"><g transform="translate(499.999562, 803.007223)"><g><path d="M 11.859375 0 L 11.859375 -101.359375 L 46.828125 -101.359375 L 46.828125 -90.703125 L 47.21875 -90.703125 C 56.3125 -99.785156 65.992188 -104.328125 76.265625 -104.328125 C 81.273438 -104.328125 86.25 -103.664062 91.1875 -102.34375 C 96.125 -101.03125 100.863281 -98.988281 105.40625 -96.21875 C 109.957031 -93.457031 113.648438 -89.539062 116.484375 -84.46875 C 119.316406 -79.394531 120.734375 -73.5 120.734375 -66.78125 L 120.734375 0 L 85.75 0 L 85.75 -57.296875 C 85.75 -62.566406 84.066406 -67.175781 80.703125 -71.125 C 77.347656 -75.082031 72.972656 -77.0625 67.578125 -77.0625 C 62.304688 -77.0625 57.53125 -75.019531 53.25 -70.9375 C 48.96875 -66.851562 46.828125 -62.304688 46.828125 -57.296875 L 46.828125 0 Z M 11.859375 0 "/></g></g></g><g fill="#1a1a1a" fill-opacity="1"><g transform="translate(613.809546, 803.007223)"><g><path d="M 11.859375 0 L 11.859375 -101.359375 L 46.828125 -101.359375 L 46.828125 -90.703125 L 47.21875 -90.703125 C 56.3125 -99.785156 65.992188 -104.328125 76.265625 -104.328125 C 81.273438 -104.328125 86.25 -103.664062 91.1875 -102.34375 C 96.125 -101.03125 100.863281 -98.988281 105.40625 -96.21875 C 109.957031 -93.457031 113.648438 -89.539062 116.484375 -84.46875 C 119.316406 -79.394531 120.734375 -73.5 120.734375 -66.78125 L 120.734375 0 L 85.75 0 L 85.75 -57.296875 C 85.75 -62.566406 84.066406 -67.175781 80.703125 -71.125 C 77.347656 -75.082031 72.972656 -77.0625 67.578125 -77.0625 C 62.304688 -77.0625 57.53125 -75.019531 53.25 -70.9375 C 48.96875 -66.851562 46.828125 -62.304688 46.828125 -57.296875 L 46.828125 0 Z M 11.859375 0 "/></g></g></g><g fill="#1a1a1a" fill-opacity="1"><g transform="translate(727.619518, 803.007223)"><g><path d="M 18.765625 -12.546875 C 9.285156 -22.890625 4.546875 -35.566406 4.546875 -50.578125 C 4.546875 -65.597656 9.285156 -78.3125 18.765625 -88.71875 C 28.253906 -99.125 40.3125 -104.328125 54.9375 -104.328125 C 68.363281 -104.328125 79.425781 -100.113281 88.125 -91.6875 L 88.125 -101.359375 L 123.09375 -101.359375 L 123.09375 0 L 88.515625 0 L 88.515625 -11.453125 L 88.125 -11.453125 C 79.425781 -1.835938 68.363281 2.96875 54.9375 2.96875 C 40.3125 2.96875 28.253906 -2.203125 18.765625 -12.546875 Z M 48.5 -67.78125 C 43.957031 -63.300781 41.6875 -57.566406 41.6875 -50.578125 C 41.6875 -43.597656 43.859375 -37.898438 48.203125 -33.484375 C 52.554688 -29.078125 58.289062 -26.875 65.40625 -26.875 C 72.25 -26.875 77.878906 -29.113281 82.296875 -33.59375 C 86.710938 -38.070312 88.921875 -43.734375 88.921875 -50.578125 C 88.921875 -57.566406 86.644531 -63.300781 82.09375 -67.78125 C 77.550781 -72.257812 71.988281 -74.5 65.40625 -74.5 C 58.6875 -74.5 53.050781 -72.257812 48.5 -67.78125 Z M 48.5 -67.78125 "/></g></g></g><g fill="#e17a32" fill-opacity="1"><g transform="translate(845.778887, 803.007223)"><g><path d="M 65.796875 -75.671875 C 59.210938 -75.671875 53.546875 -73.234375 48.796875 -68.359375 C 44.054688 -63.492188 41.6875 -57.632812 41.6875 -50.78125 C 41.6875 -43.800781 44.054688 -37.875 48.796875 -33 C 53.546875 -28.125 59.210938 -25.6875 65.796875 -25.6875 C 68.960938 -25.6875 71.957031 -26.082031 74.78125 -26.875 C 77.613281 -27.664062 79.691406 -28.457031 81.015625 -29.25 L 82.796875 -30.421875 L 94.640625 -6.125 C 93.722656 -5.46875 92.441406 -4.644531 90.796875 -3.65625 C 89.148438 -2.664062 85.394531 -1.316406 79.53125 0.390625 C 73.664062 2.109375 67.375 2.96875 60.65625 2.96875 C 45.769531 2.96875 32.695312 -2.265625 21.4375 -12.734375 C 10.175781 -23.210938 4.546875 -35.765625 4.546875 -50.390625 C 4.546875 -65.140625 10.175781 -77.816406 21.4375 -88.421875 C 32.695312 -99.023438 45.769531 -104.328125 60.65625 -104.328125 C 67.375 -104.328125 73.566406 -103.535156 79.234375 -101.953125 C 84.898438 -100.378906 88.914062 -98.800781 91.28125 -97.21875 L 94.640625 -94.84375 L 82.796875 -70.9375 C 78.441406 -74.09375 72.773438 -75.671875 65.796875 -75.671875 Z M 65.796875 -75.671875 "/></g></g></g><g fill="#e17a32" fill-opacity="1"><g transform="translate(925.999068, 803.007223)"><g><path d="M 65.796875 -75.671875 C 59.210938 -75.671875 53.546875 -73.234375 48.796875 -68.359375 C 44.054688 -63.492188 41.6875 -57.632812 41.6875 -50.78125 C 41.6875 -43.800781 44.054688 -37.875 48.796875 -33 C 53.546875 -28.125 59.210938 -25.6875 65.796875 -25.6875 C 68.960938 -25.6875 71.957031 -26.082031 74.78125 -26.875 C 77.613281 -27.664062 79.691406 -28.457031 81.015625 -29.25 L 82.796875 -30.421875 L 94.640625 -6.125 C 93.722656 -5.46875 92.441406 -4.644531 90.796875 -3.65625 C 89.148438 -2.664062 85.394531 -1.316406 79.53125 0.390625 C 73.664062 2.109375 67.375 2.96875 60.65625 2.96875 C 45.769531 2.96875 32.695312 -2.265625 21.4375 -12.734375 C 10.175781 -23.210938 4.546875 -35.765625 4.546875 -50.390625 C 4.546875 -65.140625 10.175781 -77.816406 21.4375 -88.421875 C 32.695312 -99.023438 45.769531 -104.328125 60.65625 -104.328125 C 67.375 -104.328125 73.566406 -103.535156 79.234375 -101.953125 C 84.898438 -100.378906 88.914062 -98.800781 91.28125 -97.21875 L 94.640625 -94.84375 L 82.796875 -70.9375 C 78.441406 -74.09375 72.773438 -75.671875 65.796875 -75.671875 Z M 65.796875 -75.671875 "/></g></g></g><g fill="#1a1a1a" fill-opacity="1"><g transform="translate(1006.220283, 803.007223)"><g><path d="M 11.859375 0 L 11.859375 -169.9375 L 46.828125 -169.9375 L 46.828125 0 Z M 11.859375 0 "/></g></g></g><g fill="#1a1a1a" fill-opacity="1"><g transform="translate(1048.108539, 803.007223)"><g><path d="M 114.40625 -45.84375 L 40.90625 -45.84375 C 40.90625 -38.726562 43.207031 -33.457031 47.8125 -30.03125 C 52.425781 -26.601562 57.429688 -24.890625 62.828125 -24.890625 C 68.492188 -24.890625 72.972656 -25.644531 76.265625 -27.15625 C 79.566406 -28.675781 83.320312 -31.675781 87.53125 -36.15625 L 112.828125 -23.515625 C 102.285156 -5.859375 84.765625 2.96875 60.265625 2.96875 C 44.984375 2.96875 31.875 -2.265625 20.9375 -12.734375 C 10.007812 -23.210938 4.546875 -35.828125 4.546875 -50.578125 C 4.546875 -65.335938 10.007812 -77.984375 20.9375 -88.515625 C 31.875 -99.054688 44.984375 -104.328125 60.265625 -104.328125 C 76.335938 -104.328125 89.410156 -99.679688 99.484375 -90.390625 C 109.566406 -81.109375 114.609375 -67.835938 114.609375 -50.578125 C 114.609375 -48.210938 114.539062 -46.632812 114.40625 -45.84375 Z M 41.890625 -65.203125 L 80.421875 -65.203125 C 79.628906 -70.472656 77.550781 -74.523438 74.1875 -77.359375 C 70.832031 -80.191406 66.519531 -81.609375 61.25 -81.609375 C 55.457031 -81.609375 50.847656 -80.09375 47.421875 -77.0625 C 43.992188 -74.03125 42.148438 -70.078125 41.890625 -65.203125 Z M 41.890625 -65.203125 "/></g></g></g><g clip-path="url(#5743d70f1b)"><g clip-path="url(#228b399f2e)"><g transform="matrix(1, 0, 0, 1, 444, 611)"><g clip-path="url(#8706390741)"><g clip-path="url(#791294a624)"><g clip-path="url(#cae7841a8a)"><path fill="#e17a32" d="M 0.25 0.417969 L 85.035156 0.417969 L 85.035156 85.207031 L 0.25 85.207031 Z M 0.25 0.417969 " fill-opacity="1" fill-rule="nonzero"/></g></g></g></g></g></g></svg>